<?xml version="1.0" standalone="no"?>
<!DOCTYPE svg PUBLIC "-//W3C//DTD SVG 1.1//EN" "http://www.w3.org/Graphics/SVG/1.1/DTD/svg11.dtd" >
<svg>
<metadata>
Created by FontForge 20110222 at Sat Jan 14 00:59:02 2012
 By www-data
Paul Flo Williams, 2009
</metadata>
<defs>
<font id="Segment14" horiz-adv-x="650" >
  <font-face 
    font-family="Segment14"
    font-weight="400"
    font-stretch="normal"
    units-per-em="1000"
    panose-1="4 6 5 9 2 11 2 2 4 4"
    ascent="800"
    descent="-200"
    x-height="700"
    cap-height="760"
    bbox="3 0 519 760"
    underline-thickness="20"
    underline-position="-100"
    unicode-range="U+0020-2018"
  />
    <missing-glyph />
    <glyph glyph-name="space" unicode=" " 
 />
    <glyph glyph-name="space" unicode="&#xa0;" 
 />
    <glyph glyph-name="exclam" unicode="!" 
d="M80 760h390c15 0 25 -5 25 -12c0 -13 -30 -46 -40 -46h-15c-20 0 -20 -14 -35 -14h-105c-20 0 -20 12 -40 12s-30 -12 -40 -12h-60c-20 0 -30 22 -50 22c-30 0 -45 35 -45 40s5 10 15 10zM242 400c-12 0 -26 20 -26 30l4 70c0 30 -15 50 -15 85l4 65c2 25 31 40 46 40
s35 -15 35 -35l-7 -115c-1 -20 -15 -40 -16 -70l-2 -35c-1 -10 -10 -35 -23 -35zM174 440l-63 113c-7 11 -12 27 -12 47l3 80c1 10 8 20 15 20c8 0 15 -10 20 -20l55 -115c10 -18 18 -30 18 -50l-4 -75c-1 -10 -7 -20 -12 -20s-10 5 -20 20z" />
    <glyph glyph-name="quotedbl" unicode="&#x22;" 
d="M24 440l12 250c2 20 9 40 17 40c10 0 40 -35 40 -60l-4 -80c0 -30 20 -40 20 -70l-3 -60c-2 -28 -26 -55 -51 -55c-20 0 -31 20 -31 35zM242 400c-12 0 -26 20 -26 30l4 70c0 30 -15 50 -15 85l4 65c2 25 31 40 46 40s35 -15 35 -35l-7 -115c-1 -20 -15 -40 -16 -70
l-2 -35c-1 -10 -10 -35 -23 -35z" />
    <glyph glyph-name="numbersign" unicode="#" 
d="M440 0h-405c-10 0 -15 5 -15 10s10 12 20 22c10 8 20 18 40 18s35 25 60 25h20c40 0 40 -15 70 -15s30 15 50 15h70c40 0 50 -20 60 -20s20 -5 30 -15s20 -20 20 -30c0 -5 -10 -10 -20 -10zM424 90l3 60c0 26 -17 44 -17 70l4 80c2 35 41 55 51 55c16 0 32 -25 32 -45
l-13 -250c-1 -12 -8 -20 -16 -20c-24 0 -44 30 -44 50zM424 450l4 85c2 20 22 40 24 65l3 80c2 20 43 45 50 45s14 -12 14 -25l-16 -280c-1 -11 -16 -20 -32 -20c-10 0 -47 30 -47 50zM165 340h-46c-26 0 -50 19 -50 40s23 40 48 40h50c25 0 48 -19 48 -40s-24 -40 -50 -40z
M225 70c-18 0 -40 25 -40 40l3 60c3 45 17 45 17 80l2 30c2 40 6 70 28 70c17 0 25 -50 25 -70c0 -25 5 -50 5 -80l-3 -90c-1 -20 -17 -40 -37 -40zM405 340h-96c-26 0 -50 19 -50 40s23 40 48 40h100c25 0 48 -19 48 -40s-24 -40 -50 -40zM242 400c-12 0 -26 20 -26 30
l4 70c0 30 -15 50 -15 85l4 65c2 25 31 40 46 40s35 -15 35 -35l-7 -115c-1 -20 -15 -40 -16 -70l-2 -35c-1 -10 -10 -35 -23 -35z" />
    <glyph glyph-name="dollar" unicode="$" 
d="M440 0h-405c-10 0 -15 5 -15 10s10 12 20 22c10 8 20 18 40 18s35 25 60 25h20c40 0 40 -15 70 -15s30 15 50 15h70c40 0 50 -20 60 -20s20 -5 30 -15s20 -20 20 -30c0 -5 -10 -10 -20 -10zM424 90l3 60c0 26 -17 44 -17 70l4 80c2 35 41 55 51 55c16 0 32 -25 32 -45
l-13 -250c-1 -12 -8 -20 -16 -20c-24 0 -44 30 -44 50zM80 760h390c15 0 25 -5 25 -12c0 -13 -30 -46 -40 -46h-15c-20 0 -20 -14 -35 -14h-105c-20 0 -20 12 -40 12s-30 -12 -40 -12h-60c-20 0 -30 22 -50 22c-30 0 -45 35 -45 40s5 10 15 10zM24 440l12 250
c2 20 9 40 17 40c10 0 40 -35 40 -60l-4 -80c0 -30 20 -40 20 -70l-3 -60c-2 -28 -26 -55 -51 -55c-20 0 -31 20 -31 35zM165 340h-46c-26 0 -50 19 -50 40s23 40 48 40h50c25 0 48 -19 48 -40s-24 -40 -50 -40zM225 70c-18 0 -40 25 -40 40l3 60c3 45 17 45 17 80l2 30
c2 40 6 70 28 70c17 0 25 -50 25 -70c0 -25 5 -50 5 -80l-3 -90c-1 -20 -17 -40 -37 -40zM405 340h-96c-26 0 -50 19 -50 40s23 40 48 40h100c25 0 48 -19 48 -40s-24 -40 -50 -40zM242 400c-12 0 -26 20 -26 30l4 70c0 30 -15 50 -15 85l4 65c2 25 31 40 46 40
s35 -15 35 -35l-7 -115c-1 -20 -15 -40 -16 -70l-2 -35c-1 -10 -10 -35 -23 -35z" />
    <glyph glyph-name="percent" unicode="%" 
d="M440 0h-405c-10 0 -15 5 -15 10s10 12 20 22c10 8 20 18 40 18s35 25 60 25h20c40 0 40 -15 70 -15s30 15 50 15h70c40 0 50 -20 60 -20s20 -5 30 -15s20 -20 20 -30c0 -5 -10 -10 -20 -10zM424 90l3 60c0 26 -17 44 -17 70l4 80c2 35 41 55 51 55c16 0 32 -25 32 -45
l-13 -250c-1 -12 -8 -20 -16 -20c-24 0 -44 30 -44 50zM80 760h390c15 0 25 -5 25 -12c0 -13 -30 -46 -40 -46h-15c-20 0 -20 -14 -35 -14h-105c-20 0 -20 12 -40 12s-30 -12 -40 -12h-60c-20 0 -30 22 -50 22c-30 0 -45 35 -45 40s5 10 15 10zM24 440l12 250
c2 20 9 40 17 40c10 0 40 -35 40 -60l-4 -80c0 -30 20 -40 20 -70l-3 -60c-2 -28 -26 -55 -51 -55c-20 0 -31 20 -31 35zM165 340h-46c-26 0 -50 19 -50 40s23 40 48 40h50c25 0 48 -19 48 -40s-24 -40 -50 -40zM72 80l3 65c3 30 13 37 23 53l65 110c8 10 18 30 33 30
c4 0 7 -10 7 -20l-5 -78c-2 -20 -10 -30 -12 -32l-75 -128c-6 -12 -18 -20 -28 -20c-8 0 -11 10 -11 20zM225 70c-18 0 -40 25 -40 40l3 60c3 45 17 45 17 80l2 30c2 40 6 70 28 70c17 0 25 -50 25 -70c0 -25 5 -50 5 -80l-3 -90c-1 -20 -17 -40 -37 -40zM405 340h-96
c-26 0 -50 19 -50 40s23 40 48 40h100c25 0 48 -19 48 -40s-24 -40 -50 -40zM323 427h-28c-15 0 -22 8 -22 23c2 20 9 35 22 50l108 163c10 15 20 25 28 25c10 0 16 -15 16 -35l-3 -50c-2 -27 -11 -37 -21 -50l-68 -108c-7 -10 -17 -18 -32 -18zM242 400
c-12 0 -26 20 -26 30l4 70c0 30 -15 50 -15 85l4 65c2 25 31 40 46 40s35 -15 35 -35l-7 -115c-1 -20 -15 -40 -16 -70l-2 -35c-1 -10 -10 -35 -23 -35z" />
    <glyph glyph-name="ampersand" unicode="&#x26;" 
d="M3 45l13 270c2 21 22 40 39 40c20 0 41 -25 41 -50l-4 -80c-2 -30 -20 -40 -22 -60l-4 -85c-2 -25 -35 -50 -45 -50c-7 0 -18 5 -18 15zM440 0h-405c-10 0 -15 5 -15 10s10 12 20 22c10 8 20 18 40 18s35 25 60 25h20c40 0 40 -15 70 -15s30 15 50 15h70
c40 0 50 -20 60 -20s20 -5 30 -15s20 -20 20 -30c0 -5 -10 -10 -20 -10zM424 90l3 60c0 26 -17 44 -17 70l4 80c2 35 41 55 51 55c16 0 32 -25 32 -45l-13 -250c-1 -12 -8 -20 -16 -20c-24 0 -44 30 -44 50zM80 760h390c15 0 25 -5 25 -12c0 -13 -30 -46 -40 -46h-15
c-20 0 -20 -14 -35 -14h-105c-20 0 -20 12 -40 12s-30 -12 -40 -12h-60c-20 0 -30 22 -50 22c-30 0 -45 35 -45 40s5 10 15 10zM165 340h-46c-26 0 -50 19 -50 40s23 40 48 40h50c25 0 48 -19 48 -40s-24 -40 -50 -40zM383 80l-103 180c-9 16 -13 23 -13 38l1 20
c1 10 8 15 15 15h28c20 0 25 -13 28 -15l60 -110c15 -28 20 -41 20 -56l-3 -60c-2 -15 -9 -25 -14 -25c-4 0 -15 6 -19 13zM242 400c-12 0 -26 20 -26 30l4 70c0 30 -15 50 -15 85l4 65c2 25 31 40 46 40s35 -15 35 -35l-7 -115c-1 -20 -15 -40 -16 -70l-2 -35
c-1 -10 -10 -35 -23 -35zM174 440l-63 113c-7 11 -12 27 -12 47l3 80c1 10 8 20 15 20c8 0 15 -10 20 -20l55 -115c10 -18 18 -30 18 -50l-4 -75c-1 -10 -7 -20 -12 -20s-10 5 -20 20z" />
    <glyph glyph-name="quoteright" unicode="'" 
d="M323 427h-28c-15 0 -22 8 -22 23c2 20 9 35 22 50l108 163c10 15 20 25 28 25c10 0 16 -15 16 -35l-3 -50c-2 -27 -11 -37 -21 -50l-68 -108c-7 -10 -17 -18 -32 -18z" />
    <glyph glyph-name="quoteright" unicode="&#x2019;" 
d="M323 427h-28c-15 0 -22 8 -22 23c2 20 9 35 22 50l108 163c10 15 20 25 28 25c10 0 16 -15 16 -35l-3 -50c-2 -27 -11 -37 -21 -50l-68 -108c-7 -10 -17 -18 -32 -18z" />
    <glyph glyph-name="parenleft" unicode="(" 
d="M383 80l-103 180c-9 16 -13 23 -13 38l1 20c1 10 8 15 15 15h28c20 0 25 -13 28 -15l60 -110c15 -28 20 -41 20 -56l-3 -60c-2 -15 -9 -25 -14 -25c-4 0 -15 6 -19 13zM323 427h-28c-15 0 -22 8 -22 23c2 20 9 35 22 50l108 163c10 15 20 25 28 25c10 0 16 -15 16 -35
l-3 -50c-2 -27 -11 -37 -21 -50l-68 -108c-7 -10 -17 -18 -32 -18z" />
    <glyph glyph-name="parenright" unicode=")" 
d="M72 80l3 65c3 30 13 37 23 53l65 110c8 10 18 30 33 30c4 0 7 -10 7 -20l-5 -78c-2 -20 -10 -30 -12 -32l-75 -128c-6 -12 -18 -20 -28 -20c-8 0 -11 10 -11 20zM174 440l-63 113c-7 11 -12 27 -12 47l3 80c1 10 8 20 15 20c8 0 15 -10 20 -20l55 -115
c10 -18 18 -30 18 -50l-4 -75c-1 -10 -7 -20 -12 -20s-10 5 -20 20z" />
    <glyph glyph-name="asterisk" unicode="*" 
d="M165 340h-46c-26 0 -50 19 -50 40s23 40 48 40h50c25 0 48 -19 48 -40s-24 -40 -50 -40zM72 80l3 65c3 30 13 37 23 53l65 110c8 10 18 30 33 30c4 0 7 -10 7 -20l-5 -78c-2 -20 -10 -30 -12 -32l-75 -128c-6 -12 -18 -20 -28 -20c-8 0 -11 10 -11 20zM225 70
c-18 0 -40 25 -40 40l3 60c3 45 17 45 17 80l2 30c2 40 6 70 28 70c17 0 25 -50 25 -70c0 -25 5 -50 5 -80l-3 -90c-1 -20 -17 -40 -37 -40zM383 80l-103 180c-9 16 -13 23 -13 38l1 20c1 10 8 15 15 15h28c20 0 25 -13 28 -15l60 -110c15 -28 20 -41 20 -56l-3 -60
c-2 -15 -9 -25 -14 -25c-4 0 -15 6 -19 13zM405 340h-96c-26 0 -50 19 -50 40s23 40 48 40h100c25 0 48 -19 48 -40s-24 -40 -50 -40zM323 427h-28c-15 0 -22 8 -22 23c2 20 9 35 22 50l108 163c10 15 20 25 28 25c10 0 16 -15 16 -35l-3 -50c-2 -27 -11 -37 -21 -50
l-68 -108c-7 -10 -17 -18 -32 -18zM242 400c-12 0 -26 20 -26 30l4 70c0 30 -15 50 -15 85l4 65c2 25 31 40 46 40s35 -15 35 -35l-7 -115c-1 -20 -15 -40 -16 -70l-2 -35c-1 -10 -10 -35 -23 -35zM174 440l-63 113c-7 11 -12 27 -12 47l3 80c1 10 8 20 15 20
c8 0 15 -10 20 -20l55 -115c10 -18 18 -30 18 -50l-4 -75c-1 -10 -7 -20 -12 -20s-10 5 -20 20z" />
    <glyph glyph-name="plus" unicode="+" 
d="M165 340h-46c-26 0 -50 19 -50 40s23 40 48 40h50c25 0 48 -19 48 -40s-24 -40 -50 -40zM225 70c-18 0 -40 25 -40 40l3 60c3 45 17 45 17 80l2 30c2 40 6 70 28 70c17 0 25 -50 25 -70c0 -25 5 -50 5 -80l-3 -90c-1 -20 -17 -40 -37 -40zM405 340h-96
c-26 0 -50 19 -50 40s23 40 48 40h100c25 0 48 -19 48 -40s-24 -40 -50 -40zM242 400c-12 0 -26 20 -26 30l4 70c0 30 -15 50 -15 85l4 65c2 25 31 40 46 40s35 -15 35 -35l-7 -115c-1 -20 -15 -40 -16 -70l-2 -35c-1 -10 -10 -35 -23 -35z" />
    <glyph glyph-name="comma" unicode="," 
d="M72 80l3 65c3 30 13 37 23 53l65 110c8 10 18 30 33 30c4 0 7 -10 7 -20l-5 -78c-2 -20 -10 -30 -12 -32l-75 -128c-6 -12 -18 -20 -28 -20c-8 0 -11 10 -11 20z" />
    <glyph glyph-name="hyphen" unicode="-" 
d="M165 340h-46c-26 0 -50 19 -50 40s23 40 48 40h50c25 0 48 -19 48 -40s-24 -40 -50 -40zM405 340h-96c-26 0 -50 19 -50 40s23 40 48 40h100c25 0 48 -19 48 -40s-24 -40 -50 -40z" />
    <glyph glyph-name="hyphen" unicode="&#xad;" 
d="M165 340h-46c-26 0 -50 19 -50 40s23 40 48 40h50c25 0 48 -19 48 -40s-24 -40 -50 -40zM405 340h-96c-26 0 -50 19 -50 40s23 40 48 40h100c25 0 48 -19 48 -40s-24 -40 -50 -40z" />
    <glyph glyph-name="period" unicode="." 
d="M165 340h-46c-26 0 -50 19 -50 40s23 40 48 40h50c25 0 48 -19 48 -40s-24 -40 -50 -40zM405 340h-96c-26 0 -50 19 -50 40s23 40 48 40h100c25 0 48 -19 48 -40s-24 -40 -50 -40z" />
    <glyph glyph-name="slash" unicode="/" 
d="M72 80l3 65c3 30 13 37 23 53l65 110c8 10 18 30 33 30c4 0 7 -10 7 -20l-5 -78c-2 -20 -10 -30 -12 -32l-75 -128c-6 -12 -18 -20 -28 -20c-8 0 -11 10 -11 20zM323 427h-28c-15 0 -22 8 -22 23c2 20 9 35 22 50l108 163c10 15 20 25 28 25c10 0 16 -15 16 -35l-3 -50
c-2 -27 -11 -37 -21 -50l-68 -108c-7 -10 -17 -18 -32 -18z" />
    <glyph glyph-name="zero" unicode="0" 
d="M3 45l13 270c2 21 22 40 39 40c20 0 41 -25 41 -50l-4 -80c-2 -30 -20 -40 -22 -60l-4 -85c-2 -25 -35 -50 -45 -50c-7 0 -18 5 -18 15zM440 0h-405c-10 0 -15 5 -15 10s10 12 20 22c10 8 20 18 40 18s35 25 60 25h20c40 0 40 -15 70 -15s30 15 50 15h70
c40 0 50 -20 60 -20s20 -5 30 -15s20 -20 20 -30c0 -5 -10 -10 -20 -10zM424 90l3 60c0 26 -17 44 -17 70l4 80c2 35 41 55 51 55c16 0 32 -25 32 -45l-13 -250c-1 -12 -8 -20 -16 -20c-24 0 -44 30 -44 50zM424 450l4 85c2 20 22 40 24 65l3 80c2 20 43 45 50 45
s14 -12 14 -25l-16 -280c-1 -11 -16 -20 -32 -20c-10 0 -47 30 -47 50zM80 760h390c15 0 25 -5 25 -12c0 -13 -30 -46 -40 -46h-15c-20 0 -20 -14 -35 -14h-105c-20 0 -20 12 -40 12s-30 -12 -40 -12h-60c-20 0 -30 22 -50 22c-30 0 -45 35 -45 40s5 10 15 10zM24 440
l12 250c2 20 9 40 17 40c10 0 40 -35 40 -60l-4 -80c0 -30 20 -40 20 -70l-3 -60c-2 -28 -26 -55 -51 -55c-20 0 -31 20 -31 35zM72 80l3 65c3 30 13 37 23 53l65 110c8 10 18 30 33 30c4 0 7 -10 7 -20l-5 -78c-2 -20 -10 -30 -12 -32l-75 -128c-6 -12 -18 -20 -28 -20
c-8 0 -11 10 -11 20zM323 427h-28c-15 0 -22 8 -22 23c2 20 9 35 22 50l108 163c10 15 20 25 28 25c10 0 16 -15 16 -35l-3 -50c-2 -27 -11 -37 -21 -50l-68 -108c-7 -10 -17 -18 -32 -18z" />
    <glyph glyph-name="one" unicode="1" 
d="M225 70c-18 0 -40 25 -40 40l3 60c3 45 17 45 17 80l2 30c2 40 6 70 28 70c17 0 25 -50 25 -70c0 -25 5 -50 5 -80l-3 -90c-1 -20 -17 -40 -37 -40zM242 400c-12 0 -26 20 -26 30l4 70c0 30 -15 50 -15 85l4 65c2 25 31 40 46 40s35 -15 35 -35l-7 -115
c-1 -20 -15 -40 -16 -70l-2 -35c-1 -10 -10 -35 -23 -35z" />
    <glyph glyph-name="two" unicode="2" 
d="M3 45l13 270c2 21 22 40 39 40c20 0 41 -25 41 -50l-4 -80c-2 -30 -20 -40 -22 -60l-4 -85c-2 -25 -35 -50 -45 -50c-7 0 -18 5 -18 15zM440 0h-405c-10 0 -15 5 -15 10s10 12 20 22c10 8 20 18 40 18s35 25 60 25h20c40 0 40 -15 70 -15s30 15 50 15h70
c40 0 50 -20 60 -20s20 -5 30 -15s20 -20 20 -30c0 -5 -10 -10 -20 -10zM424 450l4 85c2 20 22 40 24 65l3 80c2 20 43 45 50 45s14 -12 14 -25l-16 -280c-1 -11 -16 -20 -32 -20c-10 0 -47 30 -47 50zM80 760h390c15 0 25 -5 25 -12c0 -13 -30 -46 -40 -46h-15
c-20 0 -20 -14 -35 -14h-105c-20 0 -20 12 -40 12s-30 -12 -40 -12h-60c-20 0 -30 22 -50 22c-30 0 -45 35 -45 40s5 10 15 10zM165 340h-46c-26 0 -50 19 -50 40s23 40 48 40h50c25 0 48 -19 48 -40s-24 -40 -50 -40zM405 340h-96c-26 0 -50 19 -50 40s23 40 48 40h100
c25 0 48 -19 48 -40s-24 -40 -50 -40z" />
    <glyph glyph-name="three" unicode="3" 
d="M440 0h-405c-10 0 -15 5 -15 10s10 12 20 22c10 8 20 18 40 18s35 25 60 25h20c40 0 40 -15 70 -15s30 15 50 15h70c40 0 50 -20 60 -20s20 -5 30 -15s20 -20 20 -30c0 -5 -10 -10 -20 -10zM424 90l3 60c0 26 -17 44 -17 70l4 80c2 35 41 55 51 55c16 0 32 -25 32 -45
l-13 -250c-1 -12 -8 -20 -16 -20c-24 0 -44 30 -44 50zM424 450l4 85c2 20 22 40 24 65l3 80c2 20 43 45 50 45s14 -12 14 -25l-16 -280c-1 -11 -16 -20 -32 -20c-10 0 -47 30 -47 50zM80 760h390c15 0 25 -5 25 -12c0 -13 -30 -46 -40 -46h-15c-20 0 -20 -14 -35 -14h-105
c-20 0 -20 12 -40 12s-30 -12 -40 -12h-60c-20 0 -30 22 -50 22c-30 0 -45 35 -45 40s5 10 15 10zM165 340h-46c-26 0 -50 19 -50 40s23 40 48 40h50c25 0 48 -19 48 -40s-24 -40 -50 -40zM405 340h-96c-26 0 -50 19 -50 40s23 40 48 40h100c25 0 48 -19 48 -40
s-24 -40 -50 -40z" />
    <glyph glyph-name="four" unicode="4" 
d="M424 90l3 60c0 26 -17 44 -17 70l4 80c2 35 41 55 51 55c16 0 32 -25 32 -45l-13 -250c-1 -12 -8 -20 -16 -20c-24 0 -44 30 -44 50zM424 450l4 85c2 20 22 40 24 65l3 80c2 20 43 45 50 45s14 -12 14 -25l-16 -280c-1 -11 -16 -20 -32 -20c-10 0 -47 30 -47 50zM24 440
l12 250c2 20 9 40 17 40c10 0 40 -35 40 -60l-4 -80c0 -30 20 -40 20 -70l-3 -60c-2 -28 -26 -55 -51 -55c-20 0 -31 20 -31 35zM165 340h-46c-26 0 -50 19 -50 40s23 40 48 40h50c25 0 48 -19 48 -40s-24 -40 -50 -40zM405 340h-96c-26 0 -50 19 -50 40s23 40 48 40h100
c25 0 48 -19 48 -40s-24 -40 -50 -40z" />
    <glyph glyph-name="five" unicode="5" 
d="M440 0h-405c-10 0 -15 5 -15 10s10 12 20 22c10 8 20 18 40 18s35 25 60 25h20c40 0 40 -15 70 -15s30 15 50 15h70c40 0 50 -20 60 -20s20 -5 30 -15s20 -20 20 -30c0 -5 -10 -10 -20 -10zM424 90l3 60c0 26 -17 44 -17 70l4 80c2 35 41 55 51 55c16 0 32 -25 32 -45
l-13 -250c-1 -12 -8 -20 -16 -20c-24 0 -44 30 -44 50zM80 760h390c15 0 25 -5 25 -12c0 -13 -30 -46 -40 -46h-15c-20 0 -20 -14 -35 -14h-105c-20 0 -20 12 -40 12s-30 -12 -40 -12h-60c-20 0 -30 22 -50 22c-30 0 -45 35 -45 40s5 10 15 10zM24 440l12 250
c2 20 9 40 17 40c10 0 40 -35 40 -60l-4 -80c0 -30 20 -40 20 -70l-3 -60c-2 -28 -26 -55 -51 -55c-20 0 -31 20 -31 35zM165 340h-46c-26 0 -50 19 -50 40s23 40 48 40h50c25 0 48 -19 48 -40s-24 -40 -50 -40zM405 340h-96c-26 0 -50 19 -50 40s23 40 48 40h100
c25 0 48 -19 48 -40s-24 -40 -50 -40z" />
    <glyph glyph-name="six" unicode="6" 
d="M80 760h390c15 0 25 -5 25 -12c0 -13 -30 -46 -40 -46h-15c-20 0 -20 -14 -35 -14h-105c-20 0 -20 12 -40 12s-30 -12 -40 -12h-60c-20 0 -30 22 -50 22c-30 0 -45 35 -45 40s5 10 15 10zM24 440l12 250c2 20 9 40 17 40c10 0 40 -35 40 -60l-4 -80c0 -30 20 -40 20 -70
l-3 -60c-2 -28 -26 -55 -51 -55c-20 0 -31 20 -31 35zM3 45l13 270c2 21 22 40 39 40c20 0 41 -25 41 -50l-4 -80c-2 -30 -20 -40 -22 -60l-4 -85c-2 -25 -35 -50 -45 -50c-7 0 -18 5 -18 15zM440 0h-405c-10 0 -15 5 -15 10s10 12 20 22c10 8 20 18 40 18s35 25 60 25h20
c40 0 40 -15 70 -15s30 15 50 15h70c40 0 50 -20 60 -20s20 -5 30 -15s20 -20 20 -30c0 -5 -10 -10 -20 -10zM424 90l3 60c0 26 -17 44 -17 70l4 80c2 35 41 55 51 55c16 0 32 -25 32 -45l-13 -250c-1 -12 -8 -20 -16 -20c-24 0 -44 30 -44 50zM405 340h-96
c-26 0 -50 19 -50 40s23 40 48 40h100c25 0 48 -19 48 -40s-24 -40 -50 -40zM165 340h-46c-26 0 -50 19 -50 40s23 40 48 40h50c25 0 48 -19 48 -40s-24 -40 -50 -40z" />
    <glyph glyph-name="seven" unicode="7" 
d="M424 90l3 60c0 26 -17 44 -17 70l4 80c2 35 41 55 51 55c16 0 32 -25 32 -45l-13 -250c-1 -12 -8 -20 -16 -20c-24 0 -44 30 -44 50zM424 450l4 85c2 20 22 40 24 65l3 80c2 20 43 45 50 45s14 -12 14 -25l-16 -280c-1 -11 -16 -20 -32 -20c-10 0 -47 30 -47 50zM80 760
h390c15 0 25 -5 25 -12c0 -13 -30 -46 -40 -46h-15c-20 0 -20 -14 -35 -14h-105c-20 0 -20 12 -40 12s-30 -12 -40 -12h-60c-20 0 -30 22 -50 22c-30 0 -45 35 -45 40s5 10 15 10z" />
    <glyph glyph-name="eight" unicode="8" 
d="M3 45l13 270c2 21 22 40 39 40c20 0 41 -25 41 -50l-4 -80c-2 -30 -20 -40 -22 -60l-4 -85c-2 -25 -35 -50 -45 -50c-7 0 -18 5 -18 15zM440 0h-405c-10 0 -15 5 -15 10s10 12 20 22c10 8 20 18 40 18s35 25 60 25h20c40 0 40 -15 70 -15s30 15 50 15h70
c40 0 50 -20 60 -20s20 -5 30 -15s20 -20 20 -30c0 -5 -10 -10 -20 -10zM424 90l3 60c0 26 -17 44 -17 70l4 80c2 35 41 55 51 55c16 0 32 -25 32 -45l-13 -250c-1 -12 -8 -20 -16 -20c-24 0 -44 30 -44 50zM424 450l4 85c2 20 22 40 24 65l3 80c2 20 43 45 50 45
s14 -12 14 -25l-16 -280c-1 -11 -16 -20 -32 -20c-10 0 -47 30 -47 50zM80 760h390c15 0 25 -5 25 -12c0 -13 -30 -46 -40 -46h-15c-20 0 -20 -14 -35 -14h-105c-20 0 -20 12 -40 12s-30 -12 -40 -12h-60c-20 0 -30 22 -50 22c-30 0 -45 35 -45 40s5 10 15 10zM24 440
l12 250c2 20 9 40 17 40c10 0 40 -35 40 -60l-4 -80c0 -30 20 -40 20 -70l-3 -60c-2 -28 -26 -55 -51 -55c-20 0 -31 20 -31 35zM165 340h-46c-26 0 -50 19 -50 40s23 40 48 40h50c25 0 48 -19 48 -40s-24 -40 -50 -40zM405 340h-96c-26 0 -50 19 -50 40s23 40 48 40h100
c25 0 48 -19 48 -40s-24 -40 -50 -40z" />
    <glyph glyph-name="nine" unicode="9" 
d="M440 0h-405c-10 0 -15 5 -15 10s10 12 20 22c10 8 20 18 40 18s35 25 60 25h20c40 0 40 -15 70 -15s30 15 50 15h70c40 0 50 -20 60 -20s20 -5 30 -15s20 -20 20 -30c0 -5 -10 -10 -20 -10zM424 90l3 60c0 26 -17 44 -17 70l4 80c2 35 41 55 51 55c16 0 32 -25 32 -45
l-13 -250c-1 -12 -8 -20 -16 -20c-24 0 -44 30 -44 50zM424 450l4 85c2 20 22 40 24 65l3 80c2 20 43 45 50 45s14 -12 14 -25l-16 -280c-1 -11 -16 -20 -32 -20c-10 0 -47 30 -47 50zM80 760h390c15 0 25 -5 25 -12c0 -13 -30 -46 -40 -46h-15c-20 0 -20 -14 -35 -14h-105
c-20 0 -20 12 -40 12s-30 -12 -40 -12h-60c-20 0 -30 22 -50 22c-30 0 -45 35 -45 40s5 10 15 10zM24 440l12 250c2 20 9 40 17 40c10 0 40 -35 40 -60l-4 -80c0 -30 20 -40 20 -70l-3 -60c-2 -28 -26 -55 -51 -55c-20 0 -31 20 -31 35zM165 340h-46c-26 0 -50 19 -50 40
s23 40 48 40h50c25 0 48 -19 48 -40s-24 -40 -50 -40zM405 340h-96c-26 0 -50 19 -50 40s23 40 48 40h100c25 0 48 -19 48 -40s-24 -40 -50 -40z" />
    <glyph glyph-name="colon" unicode=":" 
d="M80 760h390c15 0 25 -5 25 -12c0 -13 -30 -46 -40 -46h-15c-20 0 -20 -14 -35 -14h-105c-20 0 -20 12 -40 12s-30 -12 -40 -12h-60c-20 0 -30 22 -50 22c-30 0 -45 35 -45 40s5 10 15 10z" />
    <glyph glyph-name="semicolon" unicode=";" 
d="M80 760h390c15 0 25 -5 25 -12c0 -13 -30 -46 -40 -46h-15c-20 0 -20 -14 -35 -14h-105c-20 0 -20 12 -40 12s-30 -12 -40 -12h-60c-20 0 -30 22 -50 22c-30 0 -45 35 -45 40s5 10 15 10zM72 80l3 65c3 30 13 37 23 53l65 110c8 10 18 30 33 30c4 0 7 -10 7 -20l-5 -78
c-2 -20 -10 -30 -12 -32l-75 -128c-6 -12 -18 -20 -28 -20c-8 0 -11 10 -11 20z" />
    <glyph glyph-name="less" unicode="&#x3c;" 
d="M440 0h-405c-10 0 -15 5 -15 10s10 12 20 22c10 8 20 18 40 18s35 25 60 25h20c40 0 40 -15 70 -15s30 15 50 15h70c40 0 50 -20 60 -20s20 -5 30 -15s20 -20 20 -30c0 -5 -10 -10 -20 -10zM72 80l3 65c3 30 13 37 23 53l65 110c8 10 18 30 33 30c4 0 7 -10 7 -20l-5 -78
c-2 -20 -10 -30 -12 -32l-75 -128c-6 -12 -18 -20 -28 -20c-8 0 -11 10 -11 20zM323 427h-28c-15 0 -22 8 -22 23c2 20 9 35 22 50l108 163c10 15 20 25 28 25c10 0 16 -15 16 -35l-3 -50c-2 -27 -11 -37 -21 -50l-68 -108c-7 -10 -17 -18 -32 -18z" />
    <glyph glyph-name="equal" unicode="=" 
d="M440 0h-405c-10 0 -15 5 -15 10s10 12 20 22c10 8 20 18 40 18s35 25 60 25h20c40 0 40 -15 70 -15s30 15 50 15h70c40 0 50 -20 60 -20s20 -5 30 -15s20 -20 20 -30c0 -5 -10 -10 -20 -10zM165 340h-46c-26 0 -50 19 -50 40s23 40 48 40h50c25 0 48 -19 48 -40
s-24 -40 -50 -40zM405 340h-96c-26 0 -50 19 -50 40s23 40 48 40h100c25 0 48 -19 48 -40s-24 -40 -50 -40z" />
    <glyph glyph-name="greater" unicode="&#x3e;" 
d="M440 0h-405c-10 0 -15 5 -15 10s10 12 20 22c10 8 20 18 40 18s35 25 60 25h20c40 0 40 -15 70 -15s30 15 50 15h70c40 0 50 -20 60 -20s20 -5 30 -15s20 -20 20 -30c0 -5 -10 -10 -20 -10zM383 80l-103 180c-9 16 -13 23 -13 38l1 20c1 10 8 15 15 15h28
c20 0 25 -13 28 -15l60 -110c15 -28 20 -41 20 -56l-3 -60c-2 -15 -9 -25 -14 -25c-4 0 -15 6 -19 13zM174 440l-63 113c-7 11 -12 27 -12 47l3 80c1 10 8 20 15 20c8 0 15 -10 20 -20l55 -115c10 -18 18 -30 18 -50l-4 -75c-1 -10 -7 -20 -12 -20s-10 5 -20 20z" />
    <glyph glyph-name="question" unicode="?" 
d="M424 450l4 85c2 20 22 40 24 65l3 80c2 20 43 45 50 45s14 -12 14 -25l-16 -280c-1 -11 -16 -20 -32 -20c-10 0 -47 30 -47 50zM80 760h390c15 0 25 -5 25 -12c0 -13 -30 -46 -40 -46h-15c-20 0 -20 -14 -35 -14h-105c-20 0 -20 12 -40 12s-30 -12 -40 -12h-60
c-20 0 -30 22 -50 22c-30 0 -45 35 -45 40s5 10 15 10zM225 70c-18 0 -40 25 -40 40l3 60c3 45 17 45 17 80l2 30c2 40 6 70 28 70c17 0 25 -50 25 -70c0 -25 5 -50 5 -80l-3 -90c-1 -20 -17 -40 -37 -40zM405 340h-96c-26 0 -50 19 -50 40s23 40 48 40h100
c25 0 48 -19 48 -40s-24 -40 -50 -40z" />
    <glyph glyph-name="at" unicode="@" 
d="M3 45l13 270c2 21 22 40 39 40c20 0 41 -25 41 -50l-4 -80c-2 -30 -20 -40 -22 -60l-4 -85c-2 -25 -35 -50 -45 -50c-7 0 -18 5 -18 15zM440 0h-405c-10 0 -15 5 -15 10s10 12 20 22c10 8 20 18 40 18s35 25 60 25h20c40 0 40 -15 70 -15s30 15 50 15h70
c40 0 50 -20 60 -20s20 -5 30 -15s20 -20 20 -30c0 -5 -10 -10 -20 -10zM424 90l3 60c0 26 -17 44 -17 70l4 80c2 35 41 55 51 55c16 0 32 -25 32 -45l-13 -250c-1 -12 -8 -20 -16 -20c-24 0 -44 30 -44 50zM424 450l4 85c2 20 22 40 24 65l3 80c2 20 43 45 50 45
s14 -12 14 -25l-16 -280c-1 -11 -16 -20 -32 -20c-10 0 -47 30 -47 50zM80 760h390c15 0 25 -5 25 -12c0 -13 -30 -46 -40 -46h-15c-20 0 -20 -14 -35 -14h-105c-20 0 -20 12 -40 12s-30 -12 -40 -12h-60c-20 0 -30 22 -50 22c-30 0 -45 35 -45 40s5 10 15 10zM165 340h-46
c-26 0 -50 19 -50 40s23 40 48 40h50c25 0 48 -19 48 -40s-24 -40 -50 -40zM225 70c-18 0 -40 25 -40 40l3 60c3 45 17 45 17 80l2 30c2 40 6 70 28 70c17 0 25 -50 25 -70c0 -25 5 -50 5 -80l-3 -90c-1 -20 -17 -40 -37 -40z" />
    <glyph glyph-name="A" unicode="A" 
d="M3 45l13 270c2 21 22 40 39 40c20 0 41 -25 41 -50l-4 -80c-2 -30 -20 -40 -22 -60l-4 -85c-2 -25 -35 -50 -45 -50c-7 0 -18 5 -18 15zM24 440l12 250c2 20 9 40 17 40c10 0 40 -35 40 -60l-4 -80c0 -30 20 -40 20 -70l-3 -60c-2 -28 -26 -55 -51 -55
c-20 0 -31 20 -31 35zM80 760h390c15 0 25 -5 25 -12c0 -13 -30 -46 -40 -46h-15c-20 0 -20 -14 -35 -14h-105c-20 0 -20 12 -40 12s-30 -12 -40 -12h-60c-20 0 -30 22 -50 22c-30 0 -45 35 -45 40s5 10 15 10zM424 450l4 85c2 20 22 40 24 65l3 80c2 20 43 45 50 45
s14 -12 14 -25l-16 -280c-1 -11 -16 -20 -32 -20c-10 0 -47 30 -47 50zM424 90l3 60c0 26 -17 44 -17 70l4 80c2 35 41 55 51 55c16 0 32 -25 32 -45l-13 -250c-1 -12 -8 -20 -16 -20c-24 0 -44 30 -44 50zM165 340h-46c-26 0 -50 19 -50 40s23 40 48 40h50
c25 0 48 -19 48 -40s-24 -40 -50 -40zM405 340h-96c-26 0 -50 19 -50 40s23 40 48 40h100c25 0 48 -19 48 -40s-24 -40 -50 -40z" />
    <glyph glyph-name="B" unicode="B" 
d="M440 0h-405c-10 0 -15 5 -15 10s10 12 20 22c10 8 20 18 40 18s35 25 60 25h20c40 0 40 -15 70 -15s30 15 50 15h70c40 0 50 -20 60 -20s20 -5 30 -15s20 -20 20 -30c0 -5 -10 -10 -20 -10zM424 90l3 60c0 26 -17 44 -17 70l4 80c2 35 41 55 51 55c16 0 32 -25 32 -45
l-13 -250c-1 -12 -8 -20 -16 -20c-24 0 -44 30 -44 50zM424 450l4 85c2 20 22 40 24 65l3 80c2 20 43 45 50 45s14 -12 14 -25l-16 -280c-1 -11 -16 -20 -32 -20c-10 0 -47 30 -47 50zM80 760h390c15 0 25 -5 25 -12c0 -13 -30 -46 -40 -46h-15c-20 0 -20 -14 -35 -14h-105
c-20 0 -20 12 -40 12s-30 -12 -40 -12h-60c-20 0 -30 22 -50 22c-30 0 -45 35 -45 40s5 10 15 10zM225 70c-18 0 -40 25 -40 40l3 60c3 45 17 45 17 80l2 30c2 40 6 70 28 70c17 0 25 -50 25 -70c0 -25 5 -50 5 -80l-3 -90c-1 -20 -17 -40 -37 -40zM242 400
c-12 0 -26 20 -26 30l4 70c0 30 -15 50 -15 85l4 65c2 25 31 40 46 40s35 -15 35 -35l-7 -115c-1 -20 -15 -40 -16 -70l-2 -35c-1 -10 -10 -35 -23 -35zM405 340h-96c-26 0 -50 19 -50 40s23 40 48 40h100c25 0 48 -19 48 -40s-24 -40 -50 -40z" />
    <glyph glyph-name="C" unicode="C" 
d="M80 760h390c15 0 25 -5 25 -12c0 -13 -30 -46 -40 -46h-15c-20 0 -20 -14 -35 -14h-105c-20 0 -20 12 -40 12s-30 -12 -40 -12h-60c-20 0 -30 22 -50 22c-30 0 -45 35 -45 40s5 10 15 10zM24 440l12 250c2 20 9 40 17 40c10 0 40 -35 40 -60l-4 -80c0 -30 20 -40 20 -70
l-3 -60c-2 -28 -26 -55 -51 -55c-20 0 -31 20 -31 35zM3 45l13 270c2 21 22 40 39 40c20 0 41 -25 41 -50l-4 -80c-2 -30 -20 -40 -22 -60l-4 -85c-2 -25 -35 -50 -45 -50c-7 0 -18 5 -18 15zM440 0h-405c-10 0 -15 5 -15 10s10 12 20 22c10 8 20 18 40 18s35 25 60 25h20
c40 0 40 -15 70 -15s30 15 50 15h70c40 0 50 -20 60 -20s20 -5 30 -15s20 -20 20 -30c0 -5 -10 -10 -20 -10z" />
    <glyph glyph-name="D" unicode="D" 
d="M440 0h-405c-10 0 -15 5 -15 10s10 12 20 22c10 8 20 18 40 18s35 25 60 25h20c40 0 40 -15 70 -15s30 15 50 15h70c40 0 50 -20 60 -20s20 -5 30 -15s20 -20 20 -30c0 -5 -10 -10 -20 -10zM424 90l3 60c0 26 -17 44 -17 70l4 80c2 35 41 55 51 55c16 0 32 -25 32 -45
l-13 -250c-1 -12 -8 -20 -16 -20c-24 0 -44 30 -44 50zM424 450l4 85c2 20 22 40 24 65l3 80c2 20 43 45 50 45s14 -12 14 -25l-16 -280c-1 -11 -16 -20 -32 -20c-10 0 -47 30 -47 50zM80 760h390c15 0 25 -5 25 -12c0 -13 -30 -46 -40 -46h-15c-20 0 -20 -14 -35 -14h-105
c-20 0 -20 12 -40 12s-30 -12 -40 -12h-60c-20 0 -30 22 -50 22c-30 0 -45 35 -45 40s5 10 15 10zM225 70c-18 0 -40 25 -40 40l3 60c3 45 17 45 17 80l2 30c2 40 6 70 28 70c17 0 25 -50 25 -70c0 -25 5 -50 5 -80l-3 -90c-1 -20 -17 -40 -37 -40zM242 400
c-12 0 -26 20 -26 30l4 70c0 30 -15 50 -15 85l4 65c2 25 31 40 46 40s35 -15 35 -35l-7 -115c-1 -20 -15 -40 -16 -70l-2 -35c-1 -10 -10 -35 -23 -35z" />
    <glyph glyph-name="E" unicode="E" 
d="M80 760h390c15 0 25 -5 25 -12c0 -13 -30 -46 -40 -46h-15c-20 0 -20 -14 -35 -14h-105c-20 0 -20 12 -40 12s-30 -12 -40 -12h-60c-20 0 -30 22 -50 22c-30 0 -45 35 -45 40s5 10 15 10zM24 440l12 250c2 20 9 40 17 40c10 0 40 -35 40 -60l-4 -80c0 -30 20 -40 20 -70
l-3 -60c-2 -28 -26 -55 -51 -55c-20 0 -31 20 -31 35zM3 45l13 270c2 21 22 40 39 40c20 0 41 -25 41 -50l-4 -80c-2 -30 -20 -40 -22 -60l-4 -85c-2 -25 -35 -50 -45 -50c-7 0 -18 5 -18 15zM440 0h-405c-10 0 -15 5 -15 10s10 12 20 22c10 8 20 18 40 18s35 25 60 25h20
c40 0 40 -15 70 -15s30 15 50 15h70c40 0 50 -20 60 -20s20 -5 30 -15s20 -20 20 -30c0 -5 -10 -10 -20 -10zM165 340h-46c-26 0 -50 19 -50 40s23 40 48 40h50c25 0 48 -19 48 -40s-24 -40 -50 -40z" />
    <glyph glyph-name="F" unicode="F" 
d="M80 760h390c15 0 25 -5 25 -12c0 -13 -30 -46 -40 -46h-15c-20 0 -20 -14 -35 -14h-105c-20 0 -20 12 -40 12s-30 -12 -40 -12h-60c-20 0 -30 22 -50 22c-30 0 -45 35 -45 40s5 10 15 10zM24 440l12 250c2 20 9 40 17 40c10 0 40 -35 40 -60l-4 -80c0 -30 20 -40 20 -70
l-3 -60c-2 -28 -26 -55 -51 -55c-20 0 -31 20 -31 35zM3 45l13 270c2 21 22 40 39 40c20 0 41 -25 41 -50l-4 -80c-2 -30 -20 -40 -22 -60l-4 -85c-2 -25 -35 -50 -45 -50c-7 0 -18 5 -18 15zM165 340h-46c-26 0 -50 19 -50 40s23 40 48 40h50c25 0 48 -19 48 -40
s-24 -40 -50 -40z" />
    <glyph glyph-name="G" unicode="G" 
d="M80 760h390c15 0 25 -5 25 -12c0 -13 -30 -46 -40 -46h-15c-20 0 -20 -14 -35 -14h-105c-20 0 -20 12 -40 12s-30 -12 -40 -12h-60c-20 0 -30 22 -50 22c-30 0 -45 35 -45 40s5 10 15 10zM24 440l12 250c2 20 9 40 17 40c10 0 40 -35 40 -60l-4 -80c0 -30 20 -40 20 -70
l-3 -60c-2 -28 -26 -55 -51 -55c-20 0 -31 20 -31 35zM3 45l13 270c2 21 22 40 39 40c20 0 41 -25 41 -50l-4 -80c-2 -30 -20 -40 -22 -60l-4 -85c-2 -25 -35 -50 -45 -50c-7 0 -18 5 -18 15zM440 0h-405c-10 0 -15 5 -15 10s10 12 20 22c10 8 20 18 40 18s35 25 60 25h20
c40 0 40 -15 70 -15s30 15 50 15h70c40 0 50 -20 60 -20s20 -5 30 -15s20 -20 20 -30c0 -5 -10 -10 -20 -10zM424 90l3 60c0 26 -17 44 -17 70l4 80c2 35 41 55 51 55c16 0 32 -25 32 -45l-13 -250c-1 -12 -8 -20 -16 -20c-24 0 -44 30 -44 50zM405 340h-96
c-26 0 -50 19 -50 40s23 40 48 40h100c25 0 48 -19 48 -40s-24 -40 -50 -40z" />
    <glyph glyph-name="H" unicode="H" 
d="M24 440l12 250c2 20 9 40 17 40c10 0 40 -35 40 -60l-4 -80c0 -30 20 -40 20 -70l-3 -60c-2 -28 -26 -55 -51 -55c-20 0 -31 20 -31 35zM3 45l13 270c2 21 22 40 39 40c20 0 41 -25 41 -50l-4 -80c-2 -30 -20 -40 -22 -60l-4 -85c-2 -25 -35 -50 -45 -50
c-7 0 -18 5 -18 15zM165 340h-46c-26 0 -50 19 -50 40s23 40 48 40h50c25 0 48 -19 48 -40s-24 -40 -50 -40zM405 340h-96c-26 0 -50 19 -50 40s23 40 48 40h100c25 0 48 -19 48 -40s-24 -40 -50 -40zM424 450l4 85c2 20 22 40 24 65l3 80c2 20 43 45 50 45s14 -12 14 -25
l-16 -280c-1 -11 -16 -20 -32 -20c-10 0 -47 30 -47 50zM424 90l3 60c0 26 -17 44 -17 70l4 80c2 35 41 55 51 55c16 0 32 -25 32 -45l-13 -250c-1 -12 -8 -20 -16 -20c-24 0 -44 30 -44 50z" />
    <glyph glyph-name="I" unicode="I" 
d="M440 0h-405c-10 0 -15 5 -15 10s10 12 20 22c10 8 20 18 40 18s35 25 60 25h20c40 0 40 -15 70 -15s30 15 50 15h70c40 0 50 -20 60 -20s20 -5 30 -15s20 -20 20 -30c0 -5 -10 -10 -20 -10zM80 760h390c15 0 25 -5 25 -12c0 -13 -30 -46 -40 -46h-15
c-20 0 -20 -14 -35 -14h-105c-20 0 -20 12 -40 12s-30 -12 -40 -12h-60c-20 0 -30 22 -50 22c-30 0 -45 35 -45 40s5 10 15 10zM225 70c-18 0 -40 25 -40 40l3 60c3 45 17 45 17 80l2 30c2 40 6 70 28 70c17 0 25 -50 25 -70c0 -25 5 -50 5 -80l-3 -90
c-1 -20 -17 -40 -37 -40zM242 400c-12 0 -26 20 -26 30l4 70c0 30 -15 50 -15 85l4 65c2 25 31 40 46 40s35 -15 35 -35l-7 -115c-1 -20 -15 -40 -16 -70l-2 -35c-1 -10 -10 -35 -23 -35z" />
    <glyph glyph-name="J" unicode="J" 
d="M3 45l13 270c2 21 22 40 39 40c20 0 41 -25 41 -50l-4 -80c-2 -30 -20 -40 -22 -60l-4 -85c-2 -25 -35 -50 -45 -50c-7 0 -18 5 -18 15zM440 0h-405c-10 0 -15 5 -15 10s10 12 20 22c10 8 20 18 40 18s35 25 60 25h20c40 0 40 -15 70 -15s30 15 50 15h70
c40 0 50 -20 60 -20s20 -5 30 -15s20 -20 20 -30c0 -5 -10 -10 -20 -10zM424 90l3 60c0 26 -17 44 -17 70l4 80c2 35 41 55 51 55c16 0 32 -25 32 -45l-13 -250c-1 -12 -8 -20 -16 -20c-24 0 -44 30 -44 50zM424 450l4 85c2 20 22 40 24 65l3 80c2 20 43 45 50 45
s14 -12 14 -25l-16 -280c-1 -11 -16 -20 -32 -20c-10 0 -47 30 -47 50z" />
    <glyph glyph-name="K" unicode="K" 
d="M24 440l12 250c2 20 9 40 17 40c10 0 40 -35 40 -60l-4 -80c0 -30 20 -40 20 -70l-3 -60c-2 -28 -26 -55 -51 -55c-20 0 -31 20 -31 35zM3 45l13 270c2 21 22 40 39 40c20 0 41 -25 41 -50l-4 -80c-2 -30 -20 -40 -22 -60l-4 -85c-2 -25 -35 -50 -45 -50
c-7 0 -18 5 -18 15zM165 340h-46c-26 0 -50 19 -50 40s23 40 48 40h50c25 0 48 -19 48 -40s-24 -40 -50 -40zM383 80l-103 180c-9 16 -13 23 -13 38l1 20c1 10 8 15 15 15h28c20 0 25 -13 28 -15l60 -110c15 -28 20 -41 20 -56l-3 -60c-2 -15 -9 -25 -14 -25
c-4 0 -15 6 -19 13zM323 427h-28c-15 0 -22 8 -22 23c2 20 9 35 22 50l108 163c10 15 20 25 28 25c10 0 16 -15 16 -35l-3 -50c-2 -27 -11 -37 -21 -50l-68 -108c-7 -10 -17 -18 -32 -18z" />
    <glyph glyph-name="L" unicode="L" 
d="M24 440l12 250c2 20 9 40 17 40c10 0 40 -35 40 -60l-4 -80c0 -30 20 -40 20 -70l-3 -60c-2 -28 -26 -55 -51 -55c-20 0 -31 20 -31 35zM3 45l13 270c2 21 22 40 39 40c20 0 41 -25 41 -50l-4 -80c-2 -30 -20 -40 -22 -60l-4 -85c-2 -25 -35 -50 -45 -50
c-7 0 -18 5 -18 15zM440 0h-405c-10 0 -15 5 -15 10s10 12 20 22c10 8 20 18 40 18s35 25 60 25h20c40 0 40 -15 70 -15s30 15 50 15h70c40 0 50 -20 60 -20s20 -5 30 -15s20 -20 20 -30c0 -5 -10 -10 -20 -10z" />
    <glyph glyph-name="M" unicode="M" 
d="M3 45l13 270c2 21 22 40 39 40c20 0 41 -25 41 -50l-4 -80c-2 -30 -20 -40 -22 -60l-4 -85c-2 -25 -35 -50 -45 -50c-7 0 -18 5 -18 15zM24 440l12 250c2 20 9 40 17 40c10 0 40 -35 40 -60l-4 -80c0 -30 20 -40 20 -70l-3 -60c-2 -28 -26 -55 -51 -55
c-20 0 -31 20 -31 35zM174 440l-63 113c-7 11 -12 27 -12 47l3 80c1 10 8 20 15 20c8 0 15 -10 20 -20l55 -115c10 -18 18 -30 18 -50l-4 -75c-1 -10 -7 -20 -12 -20s-10 5 -20 20zM323 427h-28c-15 0 -22 8 -22 23c2 20 9 35 22 50l108 163c10 15 20 25 28 25
c10 0 16 -15 16 -35l-3 -50c-2 -27 -11 -37 -21 -50l-68 -108c-7 -10 -17 -18 -32 -18zM424 450l4 85c2 20 22 40 24 65l3 80c2 20 43 45 50 45s14 -12 14 -25l-16 -280c-1 -11 -16 -20 -32 -20c-10 0 -47 30 -47 50zM424 90l3 60c0 26 -17 44 -17 70l4 80c2 35 41 55 51 55
c16 0 32 -25 32 -45l-13 -250c-1 -12 -8 -20 -16 -20c-24 0 -44 30 -44 50z" />
    <glyph glyph-name="N" unicode="N" 
d="M3 45l13 270c2 21 22 40 39 40c20 0 41 -25 41 -50l-4 -80c-2 -30 -20 -40 -22 -60l-4 -85c-2 -25 -35 -50 -45 -50c-7 0 -18 5 -18 15zM24 440l12 250c2 20 9 40 17 40c10 0 40 -35 40 -60l-4 -80c0 -30 20 -40 20 -70l-3 -60c-2 -28 -26 -55 -51 -55
c-20 0 -31 20 -31 35zM174 440l-63 113c-7 11 -12 27 -12 47l3 80c1 10 8 20 15 20c8 0 15 -10 20 -20l55 -115c10 -18 18 -30 18 -50l-4 -75c-1 -10 -7 -20 -12 -20s-10 5 -20 20zM383 80l-103 180c-9 16 -13 23 -13 38l1 20c1 10 8 15 15 15h28c20 0 25 -13 28 -15
l60 -110c15 -28 20 -41 20 -56l-3 -60c-2 -15 -9 -25 -14 -25c-4 0 -15 6 -19 13zM424 90l3 60c0 26 -17 44 -17 70l4 80c2 35 41 55 51 55c16 0 32 -25 32 -45l-13 -250c-1 -12 -8 -20 -16 -20c-24 0 -44 30 -44 50zM424 450l4 85c2 20 22 40 24 65l3 80c2 20 43 45 50 45
s14 -12 14 -25l-16 -280c-1 -11 -16 -20 -32 -20c-10 0 -47 30 -47 50z" />
    <glyph glyph-name="O" unicode="O" 
d="M3 45l13 270c2 21 22 40 39 40c20 0 41 -25 41 -50l-4 -80c-2 -30 -20 -40 -22 -60l-4 -85c-2 -25 -35 -50 -45 -50c-7 0 -18 5 -18 15zM440 0h-405c-10 0 -15 5 -15 10s10 12 20 22c10 8 20 18 40 18s35 25 60 25h20c40 0 40 -15 70 -15s30 15 50 15h70
c40 0 50 -20 60 -20s20 -5 30 -15s20 -20 20 -30c0 -5 -10 -10 -20 -10zM424 90l3 60c0 26 -17 44 -17 70l4 80c2 35 41 55 51 55c16 0 32 -25 32 -45l-13 -250c-1 -12 -8 -20 -16 -20c-24 0 -44 30 -44 50zM424 450l4 85c2 20 22 40 24 65l3 80c2 20 43 45 50 45
s14 -12 14 -25l-16 -280c-1 -11 -16 -20 -32 -20c-10 0 -47 30 -47 50zM80 760h390c15 0 25 -5 25 -12c0 -13 -30 -46 -40 -46h-15c-20 0 -20 -14 -35 -14h-105c-20 0 -20 12 -40 12s-30 -12 -40 -12h-60c-20 0 -30 22 -50 22c-30 0 -45 35 -45 40s5 10 15 10zM24 440
l12 250c2 20 9 40 17 40c10 0 40 -35 40 -60l-4 -80c0 -30 20 -40 20 -70l-3 -60c-2 -28 -26 -55 -51 -55c-20 0 -31 20 -31 35z" />
    <glyph glyph-name="P" unicode="P" 
d="M3 45l13 270c2 21 22 40 39 40c20 0 41 -25 41 -50l-4 -80c-2 -30 -20 -40 -22 -60l-4 -85c-2 -25 -35 -50 -45 -50c-7 0 -18 5 -18 15zM24 440l12 250c2 20 9 40 17 40c10 0 40 -35 40 -60l-4 -80c0 -30 20 -40 20 -70l-3 -60c-2 -28 -26 -55 -51 -55
c-20 0 -31 20 -31 35zM80 760h390c15 0 25 -5 25 -12c0 -13 -30 -46 -40 -46h-15c-20 0 -20 -14 -35 -14h-105c-20 0 -20 12 -40 12s-30 -12 -40 -12h-60c-20 0 -30 22 -50 22c-30 0 -45 35 -45 40s5 10 15 10zM424 450l4 85c2 20 22 40 24 65l3 80c2 20 43 45 50 45
s14 -12 14 -25l-16 -280c-1 -11 -16 -20 -32 -20c-10 0 -47 30 -47 50zM405 340h-96c-26 0 -50 19 -50 40s23 40 48 40h100c25 0 48 -19 48 -40s-24 -40 -50 -40zM165 340h-46c-26 0 -50 19 -50 40s23 40 48 40h50c25 0 48 -19 48 -40s-24 -40 -50 -40z" />
    <glyph glyph-name="Q" unicode="Q" 
d="M3 45l13 270c2 21 22 40 39 40c20 0 41 -25 41 -50l-4 -80c-2 -30 -20 -40 -22 -60l-4 -85c-2 -25 -35 -50 -45 -50c-7 0 -18 5 -18 15zM440 0h-405c-10 0 -15 5 -15 10s10 12 20 22c10 8 20 18 40 18s35 25 60 25h20c40 0 40 -15 70 -15s30 15 50 15h70
c40 0 50 -20 60 -20s20 -5 30 -15s20 -20 20 -30c0 -5 -10 -10 -20 -10zM424 90l3 60c0 26 -17 44 -17 70l4 80c2 35 41 55 51 55c16 0 32 -25 32 -45l-13 -250c-1 -12 -8 -20 -16 -20c-24 0 -44 30 -44 50zM424 450l4 85c2 20 22 40 24 65l3 80c2 20 43 45 50 45
s14 -12 14 -25l-16 -280c-1 -11 -16 -20 -32 -20c-10 0 -47 30 -47 50zM80 760h390c15 0 25 -5 25 -12c0 -13 -30 -46 -40 -46h-15c-20 0 -20 -14 -35 -14h-105c-20 0 -20 12 -40 12s-30 -12 -40 -12h-60c-20 0 -30 22 -50 22c-30 0 -45 35 -45 40s5 10 15 10zM24 440
l12 250c2 20 9 40 17 40c10 0 40 -35 40 -60l-4 -80c0 -30 20 -40 20 -70l-3 -60c-2 -28 -26 -55 -51 -55c-20 0 -31 20 -31 35zM383 80l-103 180c-9 16 -13 23 -13 38l1 20c1 10 8 15 15 15h28c20 0 25 -13 28 -15l60 -110c15 -28 20 -41 20 -56l-3 -60
c-2 -15 -9 -25 -14 -25c-4 0 -15 6 -19 13z" />
    <glyph glyph-name="R" unicode="R" 
d="M3 45l13 270c2 21 22 40 39 40c20 0 41 -25 41 -50l-4 -80c-2 -30 -20 -40 -22 -60l-4 -85c-2 -25 -35 -50 -45 -50c-7 0 -18 5 -18 15zM165 340h-46c-26 0 -50 19 -50 40s23 40 48 40h50c25 0 48 -19 48 -40s-24 -40 -50 -40zM383 80l-103 180c-9 16 -13 23 -13 38l1 20
c1 10 8 15 15 15h28c20 0 25 -13 28 -15l60 -110c15 -28 20 -41 20 -56l-3 -60c-2 -15 -9 -25 -14 -25c-4 0 -15 6 -19 13zM405 340h-96c-26 0 -50 19 -50 40s23 40 48 40h100c25 0 48 -19 48 -40s-24 -40 -50 -40zM424 450l4 85c2 20 22 40 24 65l3 80c2 20 43 45 50 45
s14 -12 14 -25l-16 -280c-1 -11 -16 -20 -32 -20c-10 0 -47 30 -47 50zM80 760h390c15 0 25 -5 25 -12c0 -13 -30 -46 -40 -46h-15c-20 0 -20 -14 -35 -14h-105c-20 0 -20 12 -40 12s-30 -12 -40 -12h-60c-20 0 -30 22 -50 22c-30 0 -45 35 -45 40s5 10 15 10zM24 440
l12 250c2 20 9 40 17 40c10 0 40 -35 40 -60l-4 -80c0 -30 20 -40 20 -70l-3 -60c-2 -28 -26 -55 -51 -55c-20 0 -31 20 -31 35z" />
    <glyph glyph-name="S" unicode="S" 
d="M80 760h390c15 0 25 -5 25 -12c0 -13 -30 -46 -40 -46h-15c-20 0 -20 -14 -35 -14h-105c-20 0 -20 12 -40 12s-30 -12 -40 -12h-60c-20 0 -30 22 -50 22c-30 0 -45 35 -45 40s5 10 15 10zM24 440l12 250c2 20 9 40 17 40c10 0 40 -35 40 -60l-4 -80c0 -30 20 -40 20 -70
l-3 -60c-2 -28 -26 -55 -51 -55c-20 0 -31 20 -31 35zM165 340h-46c-26 0 -50 19 -50 40s23 40 48 40h50c25 0 48 -19 48 -40s-24 -40 -50 -40zM405 340h-96c-26 0 -50 19 -50 40s23 40 48 40h100c25 0 48 -19 48 -40s-24 -40 -50 -40zM424 90l3 60c0 26 -17 44 -17 70l4 80
c2 35 41 55 51 55c16 0 32 -25 32 -45l-13 -250c-1 -12 -8 -20 -16 -20c-24 0 -44 30 -44 50zM440 0h-405c-10 0 -15 5 -15 10s10 12 20 22c10 8 20 18 40 18s35 25 60 25h20c40 0 40 -15 70 -15s30 15 50 15h70c40 0 50 -20 60 -20s20 -5 30 -15s20 -20 20 -30
c0 -5 -10 -10 -20 -10z" />
    <glyph glyph-name="T" unicode="T" 
d="M80 760h390c15 0 25 -5 25 -12c0 -13 -30 -46 -40 -46h-15c-20 0 -20 -14 -35 -14h-105c-20 0 -20 12 -40 12s-30 -12 -40 -12h-60c-20 0 -30 22 -50 22c-30 0 -45 35 -45 40s5 10 15 10zM242 400c-12 0 -26 20 -26 30l4 70c0 30 -15 50 -15 85l4 65c2 25 31 40 46 40
s35 -15 35 -35l-7 -115c-1 -20 -15 -40 -16 -70l-2 -35c-1 -10 -10 -35 -23 -35zM225 70c-18 0 -40 25 -40 40l3 60c3 45 17 45 17 80l2 30c2 40 6 70 28 70c17 0 25 -50 25 -70c0 -25 5 -50 5 -80l-3 -90c-1 -20 -17 -40 -37 -40z" />
    <glyph glyph-name="U" unicode="U" 
d="M24 440l12 250c2 20 9 40 17 40c10 0 40 -35 40 -60l-4 -80c0 -30 20 -40 20 -70l-3 -60c-2 -28 -26 -55 -51 -55c-20 0 -31 20 -31 35zM3 45l13 270c2 21 22 40 39 40c20 0 41 -25 41 -50l-4 -80c-2 -30 -20 -40 -22 -60l-4 -85c-2 -25 -35 -50 -45 -50
c-7 0 -18 5 -18 15zM440 0h-405c-10 0 -15 5 -15 10s10 12 20 22c10 8 20 18 40 18s35 25 60 25h20c40 0 40 -15 70 -15s30 15 50 15h70c40 0 50 -20 60 -20s20 -5 30 -15s20 -20 20 -30c0 -5 -10 -10 -20 -10zM424 90l3 60c0 26 -17 44 -17 70l4 80c2 35 41 55 51 55
c16 0 32 -25 32 -45l-13 -250c-1 -12 -8 -20 -16 -20c-24 0 -44 30 -44 50zM424 450l4 85c2 20 22 40 24 65l3 80c2 20 43 45 50 45s14 -12 14 -25l-16 -280c-1 -11 -16 -20 -32 -20c-10 0 -47 30 -47 50z" />
    <glyph glyph-name="V" unicode="V" 
d="M24 440l12 250c2 20 9 40 17 40c10 0 40 -35 40 -60l-4 -80c0 -30 20 -40 20 -70l-3 -60c-2 -28 -26 -55 -51 -55c-20 0 -31 20 -31 35zM3 45l13 270c2 21 22 40 39 40c20 0 41 -25 41 -50l-4 -80c-2 -30 -20 -40 -22 -60l-4 -85c-2 -25 -35 -50 -45 -50
c-7 0 -18 5 -18 15zM72 80l3 65c3 30 13 37 23 53l65 110c8 10 18 30 33 30c4 0 7 -10 7 -20l-5 -78c-2 -20 -10 -30 -12 -32l-75 -128c-6 -12 -18 -20 -28 -20c-8 0 -11 10 -11 20zM323 427h-28c-15 0 -22 8 -22 23c2 20 9 35 22 50l108 163c10 15 20 25 28 25
c10 0 16 -15 16 -35l-3 -50c-2 -27 -11 -37 -21 -50l-68 -108c-7 -10 -17 -18 -32 -18z" />
    <glyph glyph-name="W" unicode="W" 
d="M24 440l12 250c2 20 9 40 17 40c10 0 40 -35 40 -60l-4 -80c0 -30 20 -40 20 -70l-3 -60c-2 -28 -26 -55 -51 -55c-20 0 -31 20 -31 35zM3 45l13 270c2 21 22 40 39 40c20 0 41 -25 41 -50l-4 -80c-2 -30 -20 -40 -22 -60l-4 -85c-2 -25 -35 -50 -45 -50
c-7 0 -18 5 -18 15zM72 80l3 65c3 30 13 37 23 53l65 110c8 10 18 30 33 30c4 0 7 -10 7 -20l-5 -78c-2 -20 -10 -30 -12 -32l-75 -128c-6 -12 -18 -20 -28 -20c-8 0 -11 10 -11 20zM383 80l-103 180c-9 16 -13 23 -13 38l1 20c1 10 8 15 15 15h28c20 0 25 -13 28 -15
l60 -110c15 -28 20 -41 20 -56l-3 -60c-2 -15 -9 -25 -14 -25c-4 0 -15 6 -19 13zM424 90l3 60c0 26 -17 44 -17 70l4 80c2 35 41 55 51 55c16 0 32 -25 32 -45l-13 -250c-1 -12 -8 -20 -16 -20c-24 0 -44 30 -44 50zM424 450l4 85c2 20 22 40 24 65l3 80c2 20 43 45 50 45
s14 -12 14 -25l-16 -280c-1 -11 -16 -20 -32 -20c-10 0 -47 30 -47 50z" />
    <glyph glyph-name="X" unicode="X" 
d="M72 80l3 65c3 30 13 37 23 53l65 110c8 10 18 30 33 30c4 0 7 -10 7 -20l-5 -78c-2 -20 -10 -30 -12 -32l-75 -128c-6 -12 -18 -20 -28 -20c-8 0 -11 10 -11 20zM383 80l-103 180c-9 16 -13 23 -13 38l1 20c1 10 8 15 15 15h28c20 0 25 -13 28 -15l60 -110
c15 -28 20 -41 20 -56l-3 -60c-2 -15 -9 -25 -14 -25c-4 0 -15 6 -19 13zM323 427h-28c-15 0 -22 8 -22 23c2 20 9 35 22 50l108 163c10 15 20 25 28 25c10 0 16 -15 16 -35l-3 -50c-2 -27 -11 -37 -21 -50l-68 -108c-7 -10 -17 -18 -32 -18zM174 440l-63 113
c-7 11 -12 27 -12 47l3 80c1 10 8 20 15 20c8 0 15 -10 20 -20l55 -115c10 -18 18 -30 18 -50l-4 -75c-1 -10 -7 -20 -12 -20s-10 5 -20 20z" />
    <glyph glyph-name="Y" unicode="Y" 
d="M174 440l-63 113c-7 11 -12 27 -12 47l3 80c1 10 8 20 15 20c8 0 15 -10 20 -20l55 -115c10 -18 18 -30 18 -50l-4 -75c-1 -10 -7 -20 -12 -20s-10 5 -20 20zM323 427h-28c-15 0 -22 8 -22 23c2 20 9 35 22 50l108 163c10 15 20 25 28 25c10 0 16 -15 16 -35l-3 -50
c-2 -27 -11 -37 -21 -50l-68 -108c-7 -10 -17 -18 -32 -18zM225 70c-18 0 -40 25 -40 40l3 60c3 45 17 45 17 80l2 30c2 40 6 70 28 70c17 0 25 -50 25 -70c0 -25 5 -50 5 -80l-3 -90c-1 -20 -17 -40 -37 -40z" />
    <glyph glyph-name="Z" unicode="Z" 
d="M80 760h390c15 0 25 -5 25 -12c0 -13 -30 -46 -40 -46h-15c-20 0 -20 -14 -35 -14h-105c-20 0 -20 12 -40 12s-30 -12 -40 -12h-60c-20 0 -30 22 -50 22c-30 0 -45 35 -45 40s5 10 15 10zM440 0h-405c-10 0 -15 5 -15 10s10 12 20 22c10 8 20 18 40 18s35 25 60 25h20
c40 0 40 -15 70 -15s30 15 50 15h70c40 0 50 -20 60 -20s20 -5 30 -15s20 -20 20 -30c0 -5 -10 -10 -20 -10zM72 80l3 65c3 30 13 37 23 53l65 110c8 10 18 30 33 30c4 0 7 -10 7 -20l-5 -78c-2 -20 -10 -30 -12 -32l-75 -128c-6 -12 -18 -20 -28 -20c-8 0 -11 10 -11 20z
M323 427h-28c-15 0 -22 8 -22 23c2 20 9 35 22 50l108 163c10 15 20 25 28 25c10 0 16 -15 16 -35l-3 -50c-2 -27 -11 -37 -21 -50l-68 -108c-7 -10 -17 -18 -32 -18z" />
    <glyph glyph-name="bracketleft" unicode="[" 
d="M3 45l13 270c2 21 22 40 39 40c20 0 41 -25 41 -50l-4 -80c-2 -30 -20 -40 -22 -60l-4 -85c-2 -25 -35 -50 -45 -50c-7 0 -18 5 -18 15zM80 760h390c15 0 25 -5 25 -12c0 -13 -30 -46 -40 -46h-15c-20 0 -20 -14 -35 -14h-105c-20 0 -20 12 -40 12s-30 -12 -40 -12h-60
c-20 0 -30 22 -50 22c-30 0 -45 35 -45 40s5 10 15 10zM24 440l12 250c2 20 9 40 17 40c10 0 40 -35 40 -60l-4 -80c0 -30 20 -40 20 -70l-3 -60c-2 -28 -26 -55 -51 -55c-20 0 -31 20 -31 35z" />
    <glyph glyph-name="backslash" unicode="\" 
d="M383 80l-103 180c-9 16 -13 23 -13 38l1 20c1 10 8 15 15 15h28c20 0 25 -13 28 -15l60 -110c15 -28 20 -41 20 -56l-3 -60c-2 -15 -9 -25 -14 -25c-4 0 -15 6 -19 13zM174 440l-63 113c-7 11 -12 27 -12 47l3 80c1 10 8 20 15 20c8 0 15 -10 20 -20l55 -115
c10 -18 18 -30 18 -50l-4 -75c-1 -10 -7 -20 -12 -20s-10 5 -20 20z" />
    <glyph glyph-name="bracketright" unicode="]" 
d="M440 0h-405c-10 0 -15 5 -15 10s10 12 20 22c10 8 20 18 40 18s35 25 60 25h20c40 0 40 -15 70 -15s30 15 50 15h70c40 0 50 -20 60 -20s20 -5 30 -15s20 -20 20 -30c0 -5 -10 -10 -20 -10zM424 90l3 60c0 26 -17 44 -17 70l4 80c2 35 41 55 51 55c16 0 32 -25 32 -45
l-13 -250c-1 -12 -8 -20 -16 -20c-24 0 -44 30 -44 50zM424 450l4 85c2 20 22 40 24 65l3 80c2 20 43 45 50 45s14 -12 14 -25l-16 -280c-1 -11 -16 -20 -32 -20c-10 0 -47 30 -47 50z" />
    <glyph glyph-name="asciicircum" unicode="^" 
d="M72 80l3 65c3 30 13 37 23 53l65 110c8 10 18 30 33 30c4 0 7 -10 7 -20l-5 -78c-2 -20 -10 -30 -12 -32l-75 -128c-6 -12 -18 -20 -28 -20c-8 0 -11 10 -11 20zM383 80l-103 180c-9 16 -13 23 -13 38l1 20c1 10 8 15 15 15h28c20 0 25 -13 28 -15l60 -110
c15 -28 20 -41 20 -56l-3 -60c-2 -15 -9 -25 -14 -25c-4 0 -15 6 -19 13z" />
    <glyph glyph-name="underscore" unicode="_" 
d="M440 0h-405c-10 0 -15 5 -15 10s10 12 20 22c10 8 20 18 40 18s35 25 60 25h20c40 0 40 -15 70 -15s30 15 50 15h70c40 0 50 -20 60 -20s20 -5 30 -15s20 -20 20 -30c0 -5 -10 -10 -20 -10z" />
    <glyph glyph-name="grave" unicode="`" 
d="M174 440l-63 113c-7 11 -12 27 -12 47l3 80c1 10 8 20 15 20c8 0 15 -10 20 -20l55 -115c10 -18 18 -30 18 -50l-4 -75c-1 -10 -7 -20 -12 -20s-10 5 -20 20z" />
    <glyph glyph-name="grave" 
d="M174 440l-63 113c-7 11 -12 27 -12 47l3 80c1 10 8 20 15 20c8 0 15 -10 20 -20l55 -115c10 -18 18 -30 18 -50l-4 -75c-1 -10 -7 -20 -12 -20s-10 5 -20 20z" />
    <glyph glyph-name="a" unicode="a" 
d="M3 45l13 270c2 21 22 40 39 40c20 0 41 -25 41 -50l-4 -80c-2 -30 -20 -40 -22 -60l-4 -85c-2 -25 -35 -50 -45 -50c-7 0 -18 5 -18 15zM24 440l12 250c2 20 9 40 17 40c10 0 40 -35 40 -60l-4 -80c0 -30 20 -40 20 -70l-3 -60c-2 -28 -26 -55 -51 -55
c-20 0 -31 20 -31 35zM80 760h390c15 0 25 -5 25 -12c0 -13 -30 -46 -40 -46h-15c-20 0 -20 -14 -35 -14h-105c-20 0 -20 12 -40 12s-30 -12 -40 -12h-60c-20 0 -30 22 -50 22c-30 0 -45 35 -45 40s5 10 15 10zM424 450l4 85c2 20 22 40 24 65l3 80c2 20 43 45 50 45
s14 -12 14 -25l-16 -280c-1 -11 -16 -20 -32 -20c-10 0 -47 30 -47 50zM424 90l3 60c0 26 -17 44 -17 70l4 80c2 35 41 55 51 55c16 0 32 -25 32 -45l-13 -250c-1 -12 -8 -20 -16 -20c-24 0 -44 30 -44 50zM165 340h-46c-26 0 -50 19 -50 40s23 40 48 40h50
c25 0 48 -19 48 -40s-24 -40 -50 -40zM405 340h-96c-26 0 -50 19 -50 40s23 40 48 40h100c25 0 48 -19 48 -40s-24 -40 -50 -40z" />
    <glyph glyph-name="b" unicode="b" 
d="M440 0h-405c-10 0 -15 5 -15 10s10 12 20 22c10 8 20 18 40 18s35 25 60 25h20c40 0 40 -15 70 -15s30 15 50 15h70c40 0 50 -20 60 -20s20 -5 30 -15s20 -20 20 -30c0 -5 -10 -10 -20 -10zM424 90l3 60c0 26 -17 44 -17 70l4 80c2 35 41 55 51 55c16 0 32 -25 32 -45
l-13 -250c-1 -12 -8 -20 -16 -20c-24 0 -44 30 -44 50zM424 450l4 85c2 20 22 40 24 65l3 80c2 20 43 45 50 45s14 -12 14 -25l-16 -280c-1 -11 -16 -20 -32 -20c-10 0 -47 30 -47 50zM80 760h390c15 0 25 -5 25 -12c0 -13 -30 -46 -40 -46h-15c-20 0 -20 -14 -35 -14h-105
c-20 0 -20 12 -40 12s-30 -12 -40 -12h-60c-20 0 -30 22 -50 22c-30 0 -45 35 -45 40s5 10 15 10zM225 70c-18 0 -40 25 -40 40l3 60c3 45 17 45 17 80l2 30c2 40 6 70 28 70c17 0 25 -50 25 -70c0 -25 5 -50 5 -80l-3 -90c-1 -20 -17 -40 -37 -40zM242 400
c-12 0 -26 20 -26 30l4 70c0 30 -15 50 -15 85l4 65c2 25 31 40 46 40s35 -15 35 -35l-7 -115c-1 -20 -15 -40 -16 -70l-2 -35c-1 -10 -10 -35 -23 -35zM405 340h-96c-26 0 -50 19 -50 40s23 40 48 40h100c25 0 48 -19 48 -40s-24 -40 -50 -40z" />
    <glyph glyph-name="c" unicode="c" 
d="M80 760h390c15 0 25 -5 25 -12c0 -13 -30 -46 -40 -46h-15c-20 0 -20 -14 -35 -14h-105c-20 0 -20 12 -40 12s-30 -12 -40 -12h-60c-20 0 -30 22 -50 22c-30 0 -45 35 -45 40s5 10 15 10zM24 440l12 250c2 20 9 40 17 40c10 0 40 -35 40 -60l-4 -80c0 -30 20 -40 20 -70
l-3 -60c-2 -28 -26 -55 -51 -55c-20 0 -31 20 -31 35zM3 45l13 270c2 21 22 40 39 40c20 0 41 -25 41 -50l-4 -80c-2 -30 -20 -40 -22 -60l-4 -85c-2 -25 -35 -50 -45 -50c-7 0 -18 5 -18 15zM440 0h-405c-10 0 -15 5 -15 10s10 12 20 22c10 8 20 18 40 18s35 25 60 25h20
c40 0 40 -15 70 -15s30 15 50 15h70c40 0 50 -20 60 -20s20 -5 30 -15s20 -20 20 -30c0 -5 -10 -10 -20 -10z" />
    <glyph glyph-name="d" unicode="d" 
d="M440 0h-405c-10 0 -15 5 -15 10s10 12 20 22c10 8 20 18 40 18s35 25 60 25h20c40 0 40 -15 70 -15s30 15 50 15h70c40 0 50 -20 60 -20s20 -5 30 -15s20 -20 20 -30c0 -5 -10 -10 -20 -10zM424 90l3 60c0 26 -17 44 -17 70l4 80c2 35 41 55 51 55c16 0 32 -25 32 -45
l-13 -250c-1 -12 -8 -20 -16 -20c-24 0 -44 30 -44 50zM424 450l4 85c2 20 22 40 24 65l3 80c2 20 43 45 50 45s14 -12 14 -25l-16 -280c-1 -11 -16 -20 -32 -20c-10 0 -47 30 -47 50zM80 760h390c15 0 25 -5 25 -12c0 -13 -30 -46 -40 -46h-15c-20 0 -20 -14 -35 -14h-105
c-20 0 -20 12 -40 12s-30 -12 -40 -12h-60c-20 0 -30 22 -50 22c-30 0 -45 35 -45 40s5 10 15 10zM225 70c-18 0 -40 25 -40 40l3 60c3 45 17 45 17 80l2 30c2 40 6 70 28 70c17 0 25 -50 25 -70c0 -25 5 -50 5 -80l-3 -90c-1 -20 -17 -40 -37 -40zM242 400
c-12 0 -26 20 -26 30l4 70c0 30 -15 50 -15 85l4 65c2 25 31 40 46 40s35 -15 35 -35l-7 -115c-1 -20 -15 -40 -16 -70l-2 -35c-1 -10 -10 -35 -23 -35z" />
    <glyph glyph-name="e" unicode="e" 
d="M80 760h390c15 0 25 -5 25 -12c0 -13 -30 -46 -40 -46h-15c-20 0 -20 -14 -35 -14h-105c-20 0 -20 12 -40 12s-30 -12 -40 -12h-60c-20 0 -30 22 -50 22c-30 0 -45 35 -45 40s5 10 15 10zM24 440l12 250c2 20 9 40 17 40c10 0 40 -35 40 -60l-4 -80c0 -30 20 -40 20 -70
l-3 -60c-2 -28 -26 -55 -51 -55c-20 0 -31 20 -31 35zM3 45l13 270c2 21 22 40 39 40c20 0 41 -25 41 -50l-4 -80c-2 -30 -20 -40 -22 -60l-4 -85c-2 -25 -35 -50 -45 -50c-7 0 -18 5 -18 15zM440 0h-405c-10 0 -15 5 -15 10s10 12 20 22c10 8 20 18 40 18s35 25 60 25h20
c40 0 40 -15 70 -15s30 15 50 15h70c40 0 50 -20 60 -20s20 -5 30 -15s20 -20 20 -30c0 -5 -10 -10 -20 -10zM165 340h-46c-26 0 -50 19 -50 40s23 40 48 40h50c25 0 48 -19 48 -40s-24 -40 -50 -40z" />
    <glyph glyph-name="f" unicode="f" 
d="M80 760h390c15 0 25 -5 25 -12c0 -13 -30 -46 -40 -46h-15c-20 0 -20 -14 -35 -14h-105c-20 0 -20 12 -40 12s-30 -12 -40 -12h-60c-20 0 -30 22 -50 22c-30 0 -45 35 -45 40s5 10 15 10zM24 440l12 250c2 20 9 40 17 40c10 0 40 -35 40 -60l-4 -80c0 -30 20 -40 20 -70
l-3 -60c-2 -28 -26 -55 -51 -55c-20 0 -31 20 -31 35zM3 45l13 270c2 21 22 40 39 40c20 0 41 -25 41 -50l-4 -80c-2 -30 -20 -40 -22 -60l-4 -85c-2 -25 -35 -50 -45 -50c-7 0 -18 5 -18 15zM165 340h-46c-26 0 -50 19 -50 40s23 40 48 40h50c25 0 48 -19 48 -40
s-24 -40 -50 -40z" />
    <glyph glyph-name="g" unicode="g" 
d="M80 760h390c15 0 25 -5 25 -12c0 -13 -30 -46 -40 -46h-15c-20 0 -20 -14 -35 -14h-105c-20 0 -20 12 -40 12s-30 -12 -40 -12h-60c-20 0 -30 22 -50 22c-30 0 -45 35 -45 40s5 10 15 10zM24 440l12 250c2 20 9 40 17 40c10 0 40 -35 40 -60l-4 -80c0 -30 20 -40 20 -70
l-3 -60c-2 -28 -26 -55 -51 -55c-20 0 -31 20 -31 35zM3 45l13 270c2 21 22 40 39 40c20 0 41 -25 41 -50l-4 -80c-2 -30 -20 -40 -22 -60l-4 -85c-2 -25 -35 -50 -45 -50c-7 0 -18 5 -18 15zM440 0h-405c-10 0 -15 5 -15 10s10 12 20 22c10 8 20 18 40 18s35 25 60 25h20
c40 0 40 -15 70 -15s30 15 50 15h70c40 0 50 -20 60 -20s20 -5 30 -15s20 -20 20 -30c0 -5 -10 -10 -20 -10zM424 90l3 60c0 26 -17 44 -17 70l4 80c2 35 41 55 51 55c16 0 32 -25 32 -45l-13 -250c-1 -12 -8 -20 -16 -20c-24 0 -44 30 -44 50zM405 340h-96
c-26 0 -50 19 -50 40s23 40 48 40h100c25 0 48 -19 48 -40s-24 -40 -50 -40z" />
    <glyph glyph-name="h" unicode="h" 
d="M24 440l12 250c2 20 9 40 17 40c10 0 40 -35 40 -60l-4 -80c0 -30 20 -40 20 -70l-3 -60c-2 -28 -26 -55 -51 -55c-20 0 -31 20 -31 35zM3 45l13 270c2 21 22 40 39 40c20 0 41 -25 41 -50l-4 -80c-2 -30 -20 -40 -22 -60l-4 -85c-2 -25 -35 -50 -45 -50
c-7 0 -18 5 -18 15zM165 340h-46c-26 0 -50 19 -50 40s23 40 48 40h50c25 0 48 -19 48 -40s-24 -40 -50 -40zM405 340h-96c-26 0 -50 19 -50 40s23 40 48 40h100c25 0 48 -19 48 -40s-24 -40 -50 -40zM424 450l4 85c2 20 22 40 24 65l3 80c2 20 43 45 50 45s14 -12 14 -25
l-16 -280c-1 -11 -16 -20 -32 -20c-10 0 -47 30 -47 50zM424 90l3 60c0 26 -17 44 -17 70l4 80c2 35 41 55 51 55c16 0 32 -25 32 -45l-13 -250c-1 -12 -8 -20 -16 -20c-24 0 -44 30 -44 50z" />
    <glyph glyph-name="i" unicode="i" 
d="M440 0h-405c-10 0 -15 5 -15 10s10 12 20 22c10 8 20 18 40 18s35 25 60 25h20c40 0 40 -15 70 -15s30 15 50 15h70c40 0 50 -20 60 -20s20 -5 30 -15s20 -20 20 -30c0 -5 -10 -10 -20 -10zM80 760h390c15 0 25 -5 25 -12c0 -13 -30 -46 -40 -46h-15
c-20 0 -20 -14 -35 -14h-105c-20 0 -20 12 -40 12s-30 -12 -40 -12h-60c-20 0 -30 22 -50 22c-30 0 -45 35 -45 40s5 10 15 10zM225 70c-18 0 -40 25 -40 40l3 60c3 45 17 45 17 80l2 30c2 40 6 70 28 70c17 0 25 -50 25 -70c0 -25 5 -50 5 -80l-3 -90
c-1 -20 -17 -40 -37 -40zM242 400c-12 0 -26 20 -26 30l4 70c0 30 -15 50 -15 85l4 65c2 25 31 40 46 40s35 -15 35 -35l-7 -115c-1 -20 -15 -40 -16 -70l-2 -35c-1 -10 -10 -35 -23 -35z" />
    <glyph glyph-name="j" unicode="j" 
d="M3 45l13 270c2 21 22 40 39 40c20 0 41 -25 41 -50l-4 -80c-2 -30 -20 -40 -22 -60l-4 -85c-2 -25 -35 -50 -45 -50c-7 0 -18 5 -18 15zM440 0h-405c-10 0 -15 5 -15 10s10 12 20 22c10 8 20 18 40 18s35 25 60 25h20c40 0 40 -15 70 -15s30 15 50 15h70
c40 0 50 -20 60 -20s20 -5 30 -15s20 -20 20 -30c0 -5 -10 -10 -20 -10zM424 90l3 60c0 26 -17 44 -17 70l4 80c2 35 41 55 51 55c16 0 32 -25 32 -45l-13 -250c-1 -12 -8 -20 -16 -20c-24 0 -44 30 -44 50zM424 450l4 85c2 20 22 40 24 65l3 80c2 20 43 45 50 45
s14 -12 14 -25l-16 -280c-1 -11 -16 -20 -32 -20c-10 0 -47 30 -47 50z" />
    <glyph glyph-name="k" unicode="k" 
d="M24 440l12 250c2 20 9 40 17 40c10 0 40 -35 40 -60l-4 -80c0 -30 20 -40 20 -70l-3 -60c-2 -28 -26 -55 -51 -55c-20 0 -31 20 -31 35zM3 45l13 270c2 21 22 40 39 40c20 0 41 -25 41 -50l-4 -80c-2 -30 -20 -40 -22 -60l-4 -85c-2 -25 -35 -50 -45 -50
c-7 0 -18 5 -18 15zM165 340h-46c-26 0 -50 19 -50 40s23 40 48 40h50c25 0 48 -19 48 -40s-24 -40 -50 -40zM383 80l-103 180c-9 16 -13 23 -13 38l1 20c1 10 8 15 15 15h28c20 0 25 -13 28 -15l60 -110c15 -28 20 -41 20 -56l-3 -60c-2 -15 -9 -25 -14 -25
c-4 0 -15 6 -19 13zM323 427h-28c-15 0 -22 8 -22 23c2 20 9 35 22 50l108 163c10 15 20 25 28 25c10 0 16 -15 16 -35l-3 -50c-2 -27 -11 -37 -21 -50l-68 -108c-7 -10 -17 -18 -32 -18z" />
    <glyph glyph-name="l" unicode="l" 
d="M24 440l12 250c2 20 9 40 17 40c10 0 40 -35 40 -60l-4 -80c0 -30 20 -40 20 -70l-3 -60c-2 -28 -26 -55 -51 -55c-20 0 -31 20 -31 35zM3 45l13 270c2 21 22 40 39 40c20 0 41 -25 41 -50l-4 -80c-2 -30 -20 -40 -22 -60l-4 -85c-2 -25 -35 -50 -45 -50
c-7 0 -18 5 -18 15zM440 0h-405c-10 0 -15 5 -15 10s10 12 20 22c10 8 20 18 40 18s35 25 60 25h20c40 0 40 -15 70 -15s30 15 50 15h70c40 0 50 -20 60 -20s20 -5 30 -15s20 -20 20 -30c0 -5 -10 -10 -20 -10z" />
    <glyph glyph-name="m" unicode="m" 
d="M3 45l13 270c2 21 22 40 39 40c20 0 41 -25 41 -50l-4 -80c-2 -30 -20 -40 -22 -60l-4 -85c-2 -25 -35 -50 -45 -50c-7 0 -18 5 -18 15zM24 440l12 250c2 20 9 40 17 40c10 0 40 -35 40 -60l-4 -80c0 -30 20 -40 20 -70l-3 -60c-2 -28 -26 -55 -51 -55
c-20 0 -31 20 -31 35zM174 440l-63 113c-7 11 -12 27 -12 47l3 80c1 10 8 20 15 20c8 0 15 -10 20 -20l55 -115c10 -18 18 -30 18 -50l-4 -75c-1 -10 -7 -20 -12 -20s-10 5 -20 20zM323 427h-28c-15 0 -22 8 -22 23c2 20 9 35 22 50l108 163c10 15 20 25 28 25
c10 0 16 -15 16 -35l-3 -50c-2 -27 -11 -37 -21 -50l-68 -108c-7 -10 -17 -18 -32 -18zM424 450l4 85c2 20 22 40 24 65l3 80c2 20 43 45 50 45s14 -12 14 -25l-16 -280c-1 -11 -16 -20 -32 -20c-10 0 -47 30 -47 50zM424 90l3 60c0 26 -17 44 -17 70l4 80c2 35 41 55 51 55
c16 0 32 -25 32 -45l-13 -250c-1 -12 -8 -20 -16 -20c-24 0 -44 30 -44 50z" />
    <glyph glyph-name="n" unicode="n" 
d="M3 45l13 270c2 21 22 40 39 40c20 0 41 -25 41 -50l-4 -80c-2 -30 -20 -40 -22 -60l-4 -85c-2 -25 -35 -50 -45 -50c-7 0 -18 5 -18 15zM24 440l12 250c2 20 9 40 17 40c10 0 40 -35 40 -60l-4 -80c0 -30 20 -40 20 -70l-3 -60c-2 -28 -26 -55 -51 -55
c-20 0 -31 20 -31 35zM174 440l-63 113c-7 11 -12 27 -12 47l3 80c1 10 8 20 15 20c8 0 15 -10 20 -20l55 -115c10 -18 18 -30 18 -50l-4 -75c-1 -10 -7 -20 -12 -20s-10 5 -20 20zM383 80l-103 180c-9 16 -13 23 -13 38l1 20c1 10 8 15 15 15h28c20 0 25 -13 28 -15
l60 -110c15 -28 20 -41 20 -56l-3 -60c-2 -15 -9 -25 -14 -25c-4 0 -15 6 -19 13zM424 90l3 60c0 26 -17 44 -17 70l4 80c2 35 41 55 51 55c16 0 32 -25 32 -45l-13 -250c-1 -12 -8 -20 -16 -20c-24 0 -44 30 -44 50zM424 450l4 85c2 20 22 40 24 65l3 80c2 20 43 45 50 45
s14 -12 14 -25l-16 -280c-1 -11 -16 -20 -32 -20c-10 0 -47 30 -47 50z" />
    <glyph glyph-name="o" unicode="o" 
d="M3 45l13 270c2 21 22 40 39 40c20 0 41 -25 41 -50l-4 -80c-2 -30 -20 -40 -22 -60l-4 -85c-2 -25 -35 -50 -45 -50c-7 0 -18 5 -18 15zM440 0h-405c-10 0 -15 5 -15 10s10 12 20 22c10 8 20 18 40 18s35 25 60 25h20c40 0 40 -15 70 -15s30 15 50 15h70
c40 0 50 -20 60 -20s20 -5 30 -15s20 -20 20 -30c0 -5 -10 -10 -20 -10zM424 90l3 60c0 26 -17 44 -17 70l4 80c2 35 41 55 51 55c16 0 32 -25 32 -45l-13 -250c-1 -12 -8 -20 -16 -20c-24 0 -44 30 -44 50zM424 450l4 85c2 20 22 40 24 65l3 80c2 20 43 45 50 45
s14 -12 14 -25l-16 -280c-1 -11 -16 -20 -32 -20c-10 0 -47 30 -47 50zM80 760h390c15 0 25 -5 25 -12c0 -13 -30 -46 -40 -46h-15c-20 0 -20 -14 -35 -14h-105c-20 0 -20 12 -40 12s-30 -12 -40 -12h-60c-20 0 -30 22 -50 22c-30 0 -45 35 -45 40s5 10 15 10zM24 440
l12 250c2 20 9 40 17 40c10 0 40 -35 40 -60l-4 -80c0 -30 20 -40 20 -70l-3 -60c-2 -28 -26 -55 -51 -55c-20 0 -31 20 -31 35z" />
    <glyph glyph-name="p" unicode="p" 
d="M3 45l13 270c2 21 22 40 39 40c20 0 41 -25 41 -50l-4 -80c-2 -30 -20 -40 -22 -60l-4 -85c-2 -25 -35 -50 -45 -50c-7 0 -18 5 -18 15zM24 440l12 250c2 20 9 40 17 40c10 0 40 -35 40 -60l-4 -80c0 -30 20 -40 20 -70l-3 -60c-2 -28 -26 -55 -51 -55
c-20 0 -31 20 -31 35zM80 760h390c15 0 25 -5 25 -12c0 -13 -30 -46 -40 -46h-15c-20 0 -20 -14 -35 -14h-105c-20 0 -20 12 -40 12s-30 -12 -40 -12h-60c-20 0 -30 22 -50 22c-30 0 -45 35 -45 40s5 10 15 10zM424 450l4 85c2 20 22 40 24 65l3 80c2 20 43 45 50 45
s14 -12 14 -25l-16 -280c-1 -11 -16 -20 -32 -20c-10 0 -47 30 -47 50zM405 340h-96c-26 0 -50 19 -50 40s23 40 48 40h100c25 0 48 -19 48 -40s-24 -40 -50 -40zM165 340h-46c-26 0 -50 19 -50 40s23 40 48 40h50c25 0 48 -19 48 -40s-24 -40 -50 -40z" />
    <glyph glyph-name="q" unicode="q" 
d="M3 45l13 270c2 21 22 40 39 40c20 0 41 -25 41 -50l-4 -80c-2 -30 -20 -40 -22 -60l-4 -85c-2 -25 -35 -50 -45 -50c-7 0 -18 5 -18 15zM440 0h-405c-10 0 -15 5 -15 10s10 12 20 22c10 8 20 18 40 18s35 25 60 25h20c40 0 40 -15 70 -15s30 15 50 15h70
c40 0 50 -20 60 -20s20 -5 30 -15s20 -20 20 -30c0 -5 -10 -10 -20 -10zM424 90l3 60c0 26 -17 44 -17 70l4 80c2 35 41 55 51 55c16 0 32 -25 32 -45l-13 -250c-1 -12 -8 -20 -16 -20c-24 0 -44 30 -44 50zM424 450l4 85c2 20 22 40 24 65l3 80c2 20 43 45 50 45
s14 -12 14 -25l-16 -280c-1 -11 -16 -20 -32 -20c-10 0 -47 30 -47 50zM80 760h390c15 0 25 -5 25 -12c0 -13 -30 -46 -40 -46h-15c-20 0 -20 -14 -35 -14h-105c-20 0 -20 12 -40 12s-30 -12 -40 -12h-60c-20 0 -30 22 -50 22c-30 0 -45 35 -45 40s5 10 15 10zM24 440
l12 250c2 20 9 40 17 40c10 0 40 -35 40 -60l-4 -80c0 -30 20 -40 20 -70l-3 -60c-2 -28 -26 -55 -51 -55c-20 0 -31 20 -31 35zM383 80l-103 180c-9 16 -13 23 -13 38l1 20c1 10 8 15 15 15h28c20 0 25 -13 28 -15l60 -110c15 -28 20 -41 20 -56l-3 -60
c-2 -15 -9 -25 -14 -25c-4 0 -15 6 -19 13z" />
    <glyph glyph-name="r" unicode="r" 
d="M3 45l13 270c2 21 22 40 39 40c20 0 41 -25 41 -50l-4 -80c-2 -30 -20 -40 -22 -60l-4 -85c-2 -25 -35 -50 -45 -50c-7 0 -18 5 -18 15zM165 340h-46c-26 0 -50 19 -50 40s23 40 48 40h50c25 0 48 -19 48 -40s-24 -40 -50 -40zM383 80l-103 180c-9 16 -13 23 -13 38l1 20
c1 10 8 15 15 15h28c20 0 25 -13 28 -15l60 -110c15 -28 20 -41 20 -56l-3 -60c-2 -15 -9 -25 -14 -25c-4 0 -15 6 -19 13zM405 340h-96c-26 0 -50 19 -50 40s23 40 48 40h100c25 0 48 -19 48 -40s-24 -40 -50 -40zM424 450l4 85c2 20 22 40 24 65l3 80c2 20 43 45 50 45
s14 -12 14 -25l-16 -280c-1 -11 -16 -20 -32 -20c-10 0 -47 30 -47 50zM80 760h390c15 0 25 -5 25 -12c0 -13 -30 -46 -40 -46h-15c-20 0 -20 -14 -35 -14h-105c-20 0 -20 12 -40 12s-30 -12 -40 -12h-60c-20 0 -30 22 -50 22c-30 0 -45 35 -45 40s5 10 15 10zM24 440
l12 250c2 20 9 40 17 40c10 0 40 -35 40 -60l-4 -80c0 -30 20 -40 20 -70l-3 -60c-2 -28 -26 -55 -51 -55c-20 0 -31 20 -31 35z" />
    <glyph glyph-name="s" unicode="s" 
d="M80 760h390c15 0 25 -5 25 -12c0 -13 -30 -46 -40 -46h-15c-20 0 -20 -14 -35 -14h-105c-20 0 -20 12 -40 12s-30 -12 -40 -12h-60c-20 0 -30 22 -50 22c-30 0 -45 35 -45 40s5 10 15 10zM24 440l12 250c2 20 9 40 17 40c10 0 40 -35 40 -60l-4 -80c0 -30 20 -40 20 -70
l-3 -60c-2 -28 -26 -55 -51 -55c-20 0 -31 20 -31 35zM165 340h-46c-26 0 -50 19 -50 40s23 40 48 40h50c25 0 48 -19 48 -40s-24 -40 -50 -40zM405 340h-96c-26 0 -50 19 -50 40s23 40 48 40h100c25 0 48 -19 48 -40s-24 -40 -50 -40zM424 90l3 60c0 26 -17 44 -17 70l4 80
c2 35 41 55 51 55c16 0 32 -25 32 -45l-13 -250c-1 -12 -8 -20 -16 -20c-24 0 -44 30 -44 50zM440 0h-405c-10 0 -15 5 -15 10s10 12 20 22c10 8 20 18 40 18s35 25 60 25h20c40 0 40 -15 70 -15s30 15 50 15h70c40 0 50 -20 60 -20s20 -5 30 -15s20 -20 20 -30
c0 -5 -10 -10 -20 -10z" />
    <glyph glyph-name="t" unicode="t" 
d="M80 760h390c15 0 25 -5 25 -12c0 -13 -30 -46 -40 -46h-15c-20 0 -20 -14 -35 -14h-105c-20 0 -20 12 -40 12s-30 -12 -40 -12h-60c-20 0 -30 22 -50 22c-30 0 -45 35 -45 40s5 10 15 10zM242 400c-12 0 -26 20 -26 30l4 70c0 30 -15 50 -15 85l4 65c2 25 31 40 46 40
s35 -15 35 -35l-7 -115c-1 -20 -15 -40 -16 -70l-2 -35c-1 -10 -10 -35 -23 -35zM225 70c-18 0 -40 25 -40 40l3 60c3 45 17 45 17 80l2 30c2 40 6 70 28 70c17 0 25 -50 25 -70c0 -25 5 -50 5 -80l-3 -90c-1 -20 -17 -40 -37 -40z" />
    <glyph glyph-name="u" unicode="u" 
d="M24 440l12 250c2 20 9 40 17 40c10 0 40 -35 40 -60l-4 -80c0 -30 20 -40 20 -70l-3 -60c-2 -28 -26 -55 -51 -55c-20 0 -31 20 -31 35zM3 45l13 270c2 21 22 40 39 40c20 0 41 -25 41 -50l-4 -80c-2 -30 -20 -40 -22 -60l-4 -85c-2 -25 -35 -50 -45 -50
c-7 0 -18 5 -18 15zM440 0h-405c-10 0 -15 5 -15 10s10 12 20 22c10 8 20 18 40 18s35 25 60 25h20c40 0 40 -15 70 -15s30 15 50 15h70c40 0 50 -20 60 -20s20 -5 30 -15s20 -20 20 -30c0 -5 -10 -10 -20 -10zM424 90l3 60c0 26 -17 44 -17 70l4 80c2 35 41 55 51 55
c16 0 32 -25 32 -45l-13 -250c-1 -12 -8 -20 -16 -20c-24 0 -44 30 -44 50zM424 450l4 85c2 20 22 40 24 65l3 80c2 20 43 45 50 45s14 -12 14 -25l-16 -280c-1 -11 -16 -20 -32 -20c-10 0 -47 30 -47 50z" />
    <glyph glyph-name="v" unicode="v" 
d="M24 440l12 250c2 20 9 40 17 40c10 0 40 -35 40 -60l-4 -80c0 -30 20 -40 20 -70l-3 -60c-2 -28 -26 -55 -51 -55c-20 0 -31 20 -31 35zM3 45l13 270c2 21 22 40 39 40c20 0 41 -25 41 -50l-4 -80c-2 -30 -20 -40 -22 -60l-4 -85c-2 -25 -35 -50 -45 -50
c-7 0 -18 5 -18 15zM72 80l3 65c3 30 13 37 23 53l65 110c8 10 18 30 33 30c4 0 7 -10 7 -20l-5 -78c-2 -20 -10 -30 -12 -32l-75 -128c-6 -12 -18 -20 -28 -20c-8 0 -11 10 -11 20zM323 427h-28c-15 0 -22 8 -22 23c2 20 9 35 22 50l108 163c10 15 20 25 28 25
c10 0 16 -15 16 -35l-3 -50c-2 -27 -11 -37 -21 -50l-68 -108c-7 -10 -17 -18 -32 -18z" />
    <glyph glyph-name="w" unicode="w" 
d="M24 440l12 250c2 20 9 40 17 40c10 0 40 -35 40 -60l-4 -80c0 -30 20 -40 20 -70l-3 -60c-2 -28 -26 -55 -51 -55c-20 0 -31 20 -31 35zM3 45l13 270c2 21 22 40 39 40c20 0 41 -25 41 -50l-4 -80c-2 -30 -20 -40 -22 -60l-4 -85c-2 -25 -35 -50 -45 -50
c-7 0 -18 5 -18 15zM72 80l3 65c3 30 13 37 23 53l65 110c8 10 18 30 33 30c4 0 7 -10 7 -20l-5 -78c-2 -20 -10 -30 -12 -32l-75 -128c-6 -12 -18 -20 -28 -20c-8 0 -11 10 -11 20zM383 80l-103 180c-9 16 -13 23 -13 38l1 20c1 10 8 15 15 15h28c20 0 25 -13 28 -15
l60 -110c15 -28 20 -41 20 -56l-3 -60c-2 -15 -9 -25 -14 -25c-4 0 -15 6 -19 13zM424 90l3 60c0 26 -17 44 -17 70l4 80c2 35 41 55 51 55c16 0 32 -25 32 -45l-13 -250c-1 -12 -8 -20 -16 -20c-24 0 -44 30 -44 50zM424 450l4 85c2 20 22 40 24 65l3 80c2 20 43 45 50 45
s14 -12 14 -25l-16 -280c-1 -11 -16 -20 -32 -20c-10 0 -47 30 -47 50z" />
    <glyph glyph-name="x" unicode="x" 
d="M72 80l3 65c3 30 13 37 23 53l65 110c8 10 18 30 33 30c4 0 7 -10 7 -20l-5 -78c-2 -20 -10 -30 -12 -32l-75 -128c-6 -12 -18 -20 -28 -20c-8 0 -11 10 -11 20zM383 80l-103 180c-9 16 -13 23 -13 38l1 20c1 10 8 15 15 15h28c20 0 25 -13 28 -15l60 -110
c15 -28 20 -41 20 -56l-3 -60c-2 -15 -9 -25 -14 -25c-4 0 -15 6 -19 13zM323 427h-28c-15 0 -22 8 -22 23c2 20 9 35 22 50l108 163c10 15 20 25 28 25c10 0 16 -15 16 -35l-3 -50c-2 -27 -11 -37 -21 -50l-68 -108c-7 -10 -17 -18 -32 -18zM174 440l-63 113
c-7 11 -12 27 -12 47l3 80c1 10 8 20 15 20c8 0 15 -10 20 -20l55 -115c10 -18 18 -30 18 -50l-4 -75c-1 -10 -7 -20 -12 -20s-10 5 -20 20z" />
    <glyph glyph-name="y" unicode="y" 
d="M174 440l-63 113c-7 11 -12 27 -12 47l3 80c1 10 8 20 15 20c8 0 15 -10 20 -20l55 -115c10 -18 18 -30 18 -50l-4 -75c-1 -10 -7 -20 -12 -20s-10 5 -20 20zM323 427h-28c-15 0 -22 8 -22 23c2 20 9 35 22 50l108 163c10 15 20 25 28 25c10 0 16 -15 16 -35l-3 -50
c-2 -27 -11 -37 -21 -50l-68 -108c-7 -10 -17 -18 -32 -18zM225 70c-18 0 -40 25 -40 40l3 60c3 45 17 45 17 80l2 30c2 40 6 70 28 70c17 0 25 -50 25 -70c0 -25 5 -50 5 -80l-3 -90c-1 -20 -17 -40 -37 -40z" />
    <glyph glyph-name="z" unicode="z" 
d="M80 760h390c15 0 25 -5 25 -12c0 -13 -30 -46 -40 -46h-15c-20 0 -20 -14 -35 -14h-105c-20 0 -20 12 -40 12s-30 -12 -40 -12h-60c-20 0 -30 22 -50 22c-30 0 -45 35 -45 40s5 10 15 10zM440 0h-405c-10 0 -15 5 -15 10s10 12 20 22c10 8 20 18 40 18s35 25 60 25h20
c40 0 40 -15 70 -15s30 15 50 15h70c40 0 50 -20 60 -20s20 -5 30 -15s20 -20 20 -30c0 -5 -10 -10 -20 -10zM72 80l3 65c3 30 13 37 23 53l65 110c8 10 18 30 33 30c4 0 7 -10 7 -20l-5 -78c-2 -20 -10 -30 -12 -32l-75 -128c-6 -12 -18 -20 -28 -20c-8 0 -11 10 -11 20z
M323 427h-28c-15 0 -22 8 -22 23c2 20 9 35 22 50l108 163c10 15 20 25 28 25c10 0 16 -15 16 -35l-3 -50c-2 -27 -11 -37 -21 -50l-68 -108c-7 -10 -17 -18 -32 -18z" />
    <glyph glyph-name="bar" unicode="|" 
d="M225 70c-18 0 -40 25 -40 40l3 60c3 45 17 45 17 80l2 30c2 40 6 70 28 70c17 0 25 -50 25 -70c0 -25 5 -50 5 -80l-3 -90c-1 -20 -17 -40 -37 -40zM242 400c-12 0 -26 20 -26 30l4 70c0 30 -15 50 -15 85l4 65c2 25 31 40 46 40s35 -15 35 -35l-7 -115
c-1 -20 -15 -40 -16 -70l-2 -35c-1 -10 -10 -35 -23 -35z" />
    <glyph glyph-name="asciitilde" unicode="~" 
d="M3 45l13 270c2 21 22 40 39 40c20 0 41 -25 41 -50l-4 -80c-2 -30 -20 -40 -22 -60l-4 -85c-2 -25 -35 -50 -45 -50c-7 0 -18 5 -18 15zM440 0h-405c-10 0 -15 5 -15 10s10 12 20 22c10 8 20 18 40 18s35 25 60 25h20c40 0 40 -15 70 -15s30 15 50 15h70
c40 0 50 -20 60 -20s20 -5 30 -15s20 -20 20 -30c0 -5 -10 -10 -20 -10zM424 90l3 60c0 26 -17 44 -17 70l4 80c2 35 41 55 51 55c16 0 32 -25 32 -45l-13 -250c-1 -12 -8 -20 -16 -20c-24 0 -44 30 -44 50zM424 450l4 85c2 20 22 40 24 65l3 80c2 20 43 45 50 45
s14 -12 14 -25l-16 -280c-1 -11 -16 -20 -32 -20c-10 0 -47 30 -47 50zM80 760h390c15 0 25 -5 25 -12c0 -13 -30 -46 -40 -46h-15c-20 0 -20 -14 -35 -14h-105c-20 0 -20 12 -40 12s-30 -12 -40 -12h-60c-20 0 -30 22 -50 22c-30 0 -45 35 -45 40s5 10 15 10zM24 440
l12 250c2 20 9 40 17 40c10 0 40 -35 40 -60l-4 -80c0 -30 20 -40 20 -70l-3 -60c-2 -28 -26 -55 -51 -55c-20 0 -31 20 -31 35zM165 340h-46c-26 0 -50 19 -50 40s23 40 48 40h50c25 0 48 -19 48 -40s-24 -40 -50 -40zM72 80l3 65c3 30 13 37 23 53l65 110
c8 10 18 30 33 30c4 0 7 -10 7 -20l-5 -78c-2 -20 -10 -30 -12 -32l-75 -128c-6 -12 -18 -20 -28 -20c-8 0 -11 10 -11 20zM225 70c-18 0 -40 25 -40 40l3 60c3 45 17 45 17 80l2 30c2 40 6 70 28 70c17 0 25 -50 25 -70c0 -25 5 -50 5 -80l-3 -90c-1 -20 -17 -40 -37 -40z
M383 80l-103 180c-9 16 -13 23 -13 38l1 20c1 10 8 15 15 15h28c20 0 25 -13 28 -15l60 -110c15 -28 20 -41 20 -56l-3 -60c-2 -15 -9 -25 -14 -25c-4 0 -15 6 -19 13zM405 340h-96c-26 0 -50 19 -50 40s23 40 48 40h100c25 0 48 -19 48 -40s-24 -40 -50 -40zM323 427h-28
c-15 0 -22 8 -22 23c2 20 9 35 22 50l108 163c10 15 20 25 28 25c10 0 16 -15 16 -35l-3 -50c-2 -27 -11 -37 -21 -50l-68 -108c-7 -10 -17 -18 -32 -18zM242 400c-12 0 -26 20 -26 30l4 70c0 30 -15 50 -15 85l4 65c2 25 31 40 46 40s35 -15 35 -35l-7 -115
c-1 -20 -15 -40 -16 -70l-2 -35c-1 -10 -10 -35 -23 -35zM174 440l-63 113c-7 11 -12 27 -12 47l3 80c1 10 8 20 15 20c8 0 15 -10 20 -20l55 -115c10 -18 18 -30 18 -50l-4 -75c-1 -10 -7 -20 -12 -20s-10 5 -20 20z" />
    <glyph glyph-name="Agrave" unicode="&#xc0;" 
d="M3 45l13 270c2 21 22 40 39 40c20 0 41 -25 41 -50l-4 -80c-2 -30 -20 -40 -22 -60l-4 -85c-2 -25 -35 -50 -45 -50c-7 0 -18 5 -18 15zM24 440l12 250c2 20 9 40 17 40c10 0 40 -35 40 -60l-4 -80c0 -30 20 -40 20 -70l-3 -60c-2 -28 -26 -55 -51 -55
c-20 0 -31 20 -31 35zM80 760h390c15 0 25 -5 25 -12c0 -13 -30 -46 -40 -46h-15c-20 0 -20 -14 -35 -14h-105c-20 0 -20 12 -40 12s-30 -12 -40 -12h-60c-20 0 -30 22 -50 22c-30 0 -45 35 -45 40s5 10 15 10zM424 450l4 85c2 20 22 40 24 65l3 80c2 20 43 45 50 45
s14 -12 14 -25l-16 -280c-1 -11 -16 -20 -32 -20c-10 0 -47 30 -47 50zM424 90l3 60c0 26 -17 44 -17 70l4 80c2 35 41 55 51 55c16 0 32 -25 32 -45l-13 -250c-1 -12 -8 -20 -16 -20c-24 0 -44 30 -44 50zM165 340h-46c-26 0 -50 19 -50 40s23 40 48 40h50
c25 0 48 -19 48 -40s-24 -40 -50 -40zM405 340h-96c-26 0 -50 19 -50 40s23 40 48 40h100c25 0 48 -19 48 -40s-24 -40 -50 -40z" />
    <glyph glyph-name="Aacute" unicode="&#xc1;" 
d="M3 45l13 270c2 21 22 40 39 40c20 0 41 -25 41 -50l-4 -80c-2 -30 -20 -40 -22 -60l-4 -85c-2 -25 -35 -50 -45 -50c-7 0 -18 5 -18 15zM24 440l12 250c2 20 9 40 17 40c10 0 40 -35 40 -60l-4 -80c0 -30 20 -40 20 -70l-3 -60c-2 -28 -26 -55 -51 -55
c-20 0 -31 20 -31 35zM80 760h390c15 0 25 -5 25 -12c0 -13 -30 -46 -40 -46h-15c-20 0 -20 -14 -35 -14h-105c-20 0 -20 12 -40 12s-30 -12 -40 -12h-60c-20 0 -30 22 -50 22c-30 0 -45 35 -45 40s5 10 15 10zM424 450l4 85c2 20 22 40 24 65l3 80c2 20 43 45 50 45
s14 -12 14 -25l-16 -280c-1 -11 -16 -20 -32 -20c-10 0 -47 30 -47 50zM424 90l3 60c0 26 -17 44 -17 70l4 80c2 35 41 55 51 55c16 0 32 -25 32 -45l-13 -250c-1 -12 -8 -20 -16 -20c-24 0 -44 30 -44 50zM165 340h-46c-26 0 -50 19 -50 40s23 40 48 40h50
c25 0 48 -19 48 -40s-24 -40 -50 -40zM405 340h-96c-26 0 -50 19 -50 40s23 40 48 40h100c25 0 48 -19 48 -40s-24 -40 -50 -40z" />
    <glyph glyph-name="Acircumflex" unicode="&#xc2;" 
d="M3 45l13 270c2 21 22 40 39 40c20 0 41 -25 41 -50l-4 -80c-2 -30 -20 -40 -22 -60l-4 -85c-2 -25 -35 -50 -45 -50c-7 0 -18 5 -18 15zM24 440l12 250c2 20 9 40 17 40c10 0 40 -35 40 -60l-4 -80c0 -30 20 -40 20 -70l-3 -60c-2 -28 -26 -55 -51 -55
c-20 0 -31 20 -31 35zM80 760h390c15 0 25 -5 25 -12c0 -13 -30 -46 -40 -46h-15c-20 0 -20 -14 -35 -14h-105c-20 0 -20 12 -40 12s-30 -12 -40 -12h-60c-20 0 -30 22 -50 22c-30 0 -45 35 -45 40s5 10 15 10zM424 450l4 85c2 20 22 40 24 65l3 80c2 20 43 45 50 45
s14 -12 14 -25l-16 -280c-1 -11 -16 -20 -32 -20c-10 0 -47 30 -47 50zM424 90l3 60c0 26 -17 44 -17 70l4 80c2 35 41 55 51 55c16 0 32 -25 32 -45l-13 -250c-1 -12 -8 -20 -16 -20c-24 0 -44 30 -44 50zM165 340h-46c-26 0 -50 19 -50 40s23 40 48 40h50
c25 0 48 -19 48 -40s-24 -40 -50 -40zM405 340h-96c-26 0 -50 19 -50 40s23 40 48 40h100c25 0 48 -19 48 -40s-24 -40 -50 -40z" />
    <glyph glyph-name="Atilde" unicode="&#xc3;" 
d="M3 45l13 270c2 21 22 40 39 40c20 0 41 -25 41 -50l-4 -80c-2 -30 -20 -40 -22 -60l-4 -85c-2 -25 -35 -50 -45 -50c-7 0 -18 5 -18 15zM24 440l12 250c2 20 9 40 17 40c10 0 40 -35 40 -60l-4 -80c0 -30 20 -40 20 -70l-3 -60c-2 -28 -26 -55 -51 -55
c-20 0 -31 20 -31 35zM80 760h390c15 0 25 -5 25 -12c0 -13 -30 -46 -40 -46h-15c-20 0 -20 -14 -35 -14h-105c-20 0 -20 12 -40 12s-30 -12 -40 -12h-60c-20 0 -30 22 -50 22c-30 0 -45 35 -45 40s5 10 15 10zM424 450l4 85c2 20 22 40 24 65l3 80c2 20 43 45 50 45
s14 -12 14 -25l-16 -280c-1 -11 -16 -20 -32 -20c-10 0 -47 30 -47 50zM424 90l3 60c0 26 -17 44 -17 70l4 80c2 35 41 55 51 55c16 0 32 -25 32 -45l-13 -250c-1 -12 -8 -20 -16 -20c-24 0 -44 30 -44 50zM165 340h-46c-26 0 -50 19 -50 40s23 40 48 40h50
c25 0 48 -19 48 -40s-24 -40 -50 -40zM405 340h-96c-26 0 -50 19 -50 40s23 40 48 40h100c25 0 48 -19 48 -40s-24 -40 -50 -40z" />
    <glyph glyph-name="Adieresis" unicode="&#xc4;" 
d="M3 45l13 270c2 21 22 40 39 40c20 0 41 -25 41 -50l-4 -80c-2 -30 -20 -40 -22 -60l-4 -85c-2 -25 -35 -50 -45 -50c-7 0 -18 5 -18 15zM24 440l12 250c2 20 9 40 17 40c10 0 40 -35 40 -60l-4 -80c0 -30 20 -40 20 -70l-3 -60c-2 -28 -26 -55 -51 -55
c-20 0 -31 20 -31 35zM80 760h390c15 0 25 -5 25 -12c0 -13 -30 -46 -40 -46h-15c-20 0 -20 -14 -35 -14h-105c-20 0 -20 12 -40 12s-30 -12 -40 -12h-60c-20 0 -30 22 -50 22c-30 0 -45 35 -45 40s5 10 15 10zM424 450l4 85c2 20 22 40 24 65l3 80c2 20 43 45 50 45
s14 -12 14 -25l-16 -280c-1 -11 -16 -20 -32 -20c-10 0 -47 30 -47 50zM424 90l3 60c0 26 -17 44 -17 70l4 80c2 35 41 55 51 55c16 0 32 -25 32 -45l-13 -250c-1 -12 -8 -20 -16 -20c-24 0 -44 30 -44 50zM165 340h-46c-26 0 -50 19 -50 40s23 40 48 40h50
c25 0 48 -19 48 -40s-24 -40 -50 -40zM405 340h-96c-26 0 -50 19 -50 40s23 40 48 40h100c25 0 48 -19 48 -40s-24 -40 -50 -40z" />
    <glyph glyph-name="Aring" unicode="&#xc5;" 
d="M3 45l13 270c2 21 22 40 39 40c20 0 41 -25 41 -50l-4 -80c-2 -30 -20 -40 -22 -60l-4 -85c-2 -25 -35 -50 -45 -50c-7 0 -18 5 -18 15zM24 440l12 250c2 20 9 40 17 40c10 0 40 -35 40 -60l-4 -80c0 -30 20 -40 20 -70l-3 -60c-2 -28 -26 -55 -51 -55
c-20 0 -31 20 -31 35zM80 760h390c15 0 25 -5 25 -12c0 -13 -30 -46 -40 -46h-15c-20 0 -20 -14 -35 -14h-105c-20 0 -20 12 -40 12s-30 -12 -40 -12h-60c-20 0 -30 22 -50 22c-30 0 -45 35 -45 40s5 10 15 10zM424 450l4 85c2 20 22 40 24 65l3 80c2 20 43 45 50 45
s14 -12 14 -25l-16 -280c-1 -11 -16 -20 -32 -20c-10 0 -47 30 -47 50zM424 90l3 60c0 26 -17 44 -17 70l4 80c2 35 41 55 51 55c16 0 32 -25 32 -45l-13 -250c-1 -12 -8 -20 -16 -20c-24 0 -44 30 -44 50zM165 340h-46c-26 0 -50 19 -50 40s23 40 48 40h50
c25 0 48 -19 48 -40s-24 -40 -50 -40zM405 340h-96c-26 0 -50 19 -50 40s23 40 48 40h100c25 0 48 -19 48 -40s-24 -40 -50 -40z" />
    <glyph glyph-name="Ccedilla" unicode="&#xc7;" 
d="M80 760h390c15 0 25 -5 25 -12c0 -13 -30 -46 -40 -46h-15c-20 0 -20 -14 -35 -14h-105c-20 0 -20 12 -40 12s-30 -12 -40 -12h-60c-20 0 -30 22 -50 22c-30 0 -45 35 -45 40s5 10 15 10zM24 440l12 250c2 20 9 40 17 40c10 0 40 -35 40 -60l-4 -80c0 -30 20 -40 20 -70
l-3 -60c-2 -28 -26 -55 -51 -55c-20 0 -31 20 -31 35zM3 45l13 270c2 21 22 40 39 40c20 0 41 -25 41 -50l-4 -80c-2 -30 -20 -40 -22 -60l-4 -85c-2 -25 -35 -50 -45 -50c-7 0 -18 5 -18 15zM440 0h-405c-10 0 -15 5 -15 10s10 12 20 22c10 8 20 18 40 18s35 25 60 25h20
c40 0 40 -15 70 -15s30 15 50 15h70c40 0 50 -20 60 -20s20 -5 30 -15s20 -20 20 -30c0 -5 -10 -10 -20 -10z" />
    <glyph glyph-name="Egrave" unicode="&#xc8;" 
d="M80 760h390c15 0 25 -5 25 -12c0 -13 -30 -46 -40 -46h-15c-20 0 -20 -14 -35 -14h-105c-20 0 -20 12 -40 12s-30 -12 -40 -12h-60c-20 0 -30 22 -50 22c-30 0 -45 35 -45 40s5 10 15 10zM24 440l12 250c2 20 9 40 17 40c10 0 40 -35 40 -60l-4 -80c0 -30 20 -40 20 -70
l-3 -60c-2 -28 -26 -55 -51 -55c-20 0 -31 20 -31 35zM3 45l13 270c2 21 22 40 39 40c20 0 41 -25 41 -50l-4 -80c-2 -30 -20 -40 -22 -60l-4 -85c-2 -25 -35 -50 -45 -50c-7 0 -18 5 -18 15zM440 0h-405c-10 0 -15 5 -15 10s10 12 20 22c10 8 20 18 40 18s35 25 60 25h20
c40 0 40 -15 70 -15s30 15 50 15h70c40 0 50 -20 60 -20s20 -5 30 -15s20 -20 20 -30c0 -5 -10 -10 -20 -10zM165 340h-46c-26 0 -50 19 -50 40s23 40 48 40h50c25 0 48 -19 48 -40s-24 -40 -50 -40z" />
    <glyph glyph-name="Eacute" unicode="&#xc9;" 
d="M80 760h390c15 0 25 -5 25 -12c0 -13 -30 -46 -40 -46h-15c-20 0 -20 -14 -35 -14h-105c-20 0 -20 12 -40 12s-30 -12 -40 -12h-60c-20 0 -30 22 -50 22c-30 0 -45 35 -45 40s5 10 15 10zM24 440l12 250c2 20 9 40 17 40c10 0 40 -35 40 -60l-4 -80c0 -30 20 -40 20 -70
l-3 -60c-2 -28 -26 -55 -51 -55c-20 0 -31 20 -31 35zM3 45l13 270c2 21 22 40 39 40c20 0 41 -25 41 -50l-4 -80c-2 -30 -20 -40 -22 -60l-4 -85c-2 -25 -35 -50 -45 -50c-7 0 -18 5 -18 15zM440 0h-405c-10 0 -15 5 -15 10s10 12 20 22c10 8 20 18 40 18s35 25 60 25h20
c40 0 40 -15 70 -15s30 15 50 15h70c40 0 50 -20 60 -20s20 -5 30 -15s20 -20 20 -30c0 -5 -10 -10 -20 -10zM165 340h-46c-26 0 -50 19 -50 40s23 40 48 40h50c25 0 48 -19 48 -40s-24 -40 -50 -40z" />
    <glyph glyph-name="Ecircumflex" unicode="&#xca;" 
d="M80 760h390c15 0 25 -5 25 -12c0 -13 -30 -46 -40 -46h-15c-20 0 -20 -14 -35 -14h-105c-20 0 -20 12 -40 12s-30 -12 -40 -12h-60c-20 0 -30 22 -50 22c-30 0 -45 35 -45 40s5 10 15 10zM24 440l12 250c2 20 9 40 17 40c10 0 40 -35 40 -60l-4 -80c0 -30 20 -40 20 -70
l-3 -60c-2 -28 -26 -55 -51 -55c-20 0 -31 20 -31 35zM3 45l13 270c2 21 22 40 39 40c20 0 41 -25 41 -50l-4 -80c-2 -30 -20 -40 -22 -60l-4 -85c-2 -25 -35 -50 -45 -50c-7 0 -18 5 -18 15zM440 0h-405c-10 0 -15 5 -15 10s10 12 20 22c10 8 20 18 40 18s35 25 60 25h20
c40 0 40 -15 70 -15s30 15 50 15h70c40 0 50 -20 60 -20s20 -5 30 -15s20 -20 20 -30c0 -5 -10 -10 -20 -10zM165 340h-46c-26 0 -50 19 -50 40s23 40 48 40h50c25 0 48 -19 48 -40s-24 -40 -50 -40z" />
    <glyph glyph-name="Edieresis" unicode="&#xcb;" 
d="M80 760h390c15 0 25 -5 25 -12c0 -13 -30 -46 -40 -46h-15c-20 0 -20 -14 -35 -14h-105c-20 0 -20 12 -40 12s-30 -12 -40 -12h-60c-20 0 -30 22 -50 22c-30 0 -45 35 -45 40s5 10 15 10zM24 440l12 250c2 20 9 40 17 40c10 0 40 -35 40 -60l-4 -80c0 -30 20 -40 20 -70
l-3 -60c-2 -28 -26 -55 -51 -55c-20 0 -31 20 -31 35zM3 45l13 270c2 21 22 40 39 40c20 0 41 -25 41 -50l-4 -80c-2 -30 -20 -40 -22 -60l-4 -85c-2 -25 -35 -50 -45 -50c-7 0 -18 5 -18 15zM440 0h-405c-10 0 -15 5 -15 10s10 12 20 22c10 8 20 18 40 18s35 25 60 25h20
c40 0 40 -15 70 -15s30 15 50 15h70c40 0 50 -20 60 -20s20 -5 30 -15s20 -20 20 -30c0 -5 -10 -10 -20 -10zM165 340h-46c-26 0 -50 19 -50 40s23 40 48 40h50c25 0 48 -19 48 -40s-24 -40 -50 -40z" />
    <glyph glyph-name="Igrave" unicode="&#xcc;" 
d="M440 0h-405c-10 0 -15 5 -15 10s10 12 20 22c10 8 20 18 40 18s35 25 60 25h20c40 0 40 -15 70 -15s30 15 50 15h70c40 0 50 -20 60 -20s20 -5 30 -15s20 -20 20 -30c0 -5 -10 -10 -20 -10zM80 760h390c15 0 25 -5 25 -12c0 -13 -30 -46 -40 -46h-15
c-20 0 -20 -14 -35 -14h-105c-20 0 -20 12 -40 12s-30 -12 -40 -12h-60c-20 0 -30 22 -50 22c-30 0 -45 35 -45 40s5 10 15 10zM225 70c-18 0 -40 25 -40 40l3 60c3 45 17 45 17 80l2 30c2 40 6 70 28 70c17 0 25 -50 25 -70c0 -25 5 -50 5 -80l-3 -90
c-1 -20 -17 -40 -37 -40zM242 400c-12 0 -26 20 -26 30l4 70c0 30 -15 50 -15 85l4 65c2 25 31 40 46 40s35 -15 35 -35l-7 -115c-1 -20 -15 -40 -16 -70l-2 -35c-1 -10 -10 -35 -23 -35z" />
    <glyph glyph-name="Iacute" unicode="&#xcd;" 
d="M440 0h-405c-10 0 -15 5 -15 10s10 12 20 22c10 8 20 18 40 18s35 25 60 25h20c40 0 40 -15 70 -15s30 15 50 15h70c40 0 50 -20 60 -20s20 -5 30 -15s20 -20 20 -30c0 -5 -10 -10 -20 -10zM80 760h390c15 0 25 -5 25 -12c0 -13 -30 -46 -40 -46h-15
c-20 0 -20 -14 -35 -14h-105c-20 0 -20 12 -40 12s-30 -12 -40 -12h-60c-20 0 -30 22 -50 22c-30 0 -45 35 -45 40s5 10 15 10zM225 70c-18 0 -40 25 -40 40l3 60c3 45 17 45 17 80l2 30c2 40 6 70 28 70c17 0 25 -50 25 -70c0 -25 5 -50 5 -80l-3 -90
c-1 -20 -17 -40 -37 -40zM242 400c-12 0 -26 20 -26 30l4 70c0 30 -15 50 -15 85l4 65c2 25 31 40 46 40s35 -15 35 -35l-7 -115c-1 -20 -15 -40 -16 -70l-2 -35c-1 -10 -10 -35 -23 -35z" />
    <glyph glyph-name="Icircumflex" unicode="&#xce;" 
d="M440 0h-405c-10 0 -15 5 -15 10s10 12 20 22c10 8 20 18 40 18s35 25 60 25h20c40 0 40 -15 70 -15s30 15 50 15h70c40 0 50 -20 60 -20s20 -5 30 -15s20 -20 20 -30c0 -5 -10 -10 -20 -10zM80 760h390c15 0 25 -5 25 -12c0 -13 -30 -46 -40 -46h-15
c-20 0 -20 -14 -35 -14h-105c-20 0 -20 12 -40 12s-30 -12 -40 -12h-60c-20 0 -30 22 -50 22c-30 0 -45 35 -45 40s5 10 15 10zM225 70c-18 0 -40 25 -40 40l3 60c3 45 17 45 17 80l2 30c2 40 6 70 28 70c17 0 25 -50 25 -70c0 -25 5 -50 5 -80l-3 -90
c-1 -20 -17 -40 -37 -40zM242 400c-12 0 -26 20 -26 30l4 70c0 30 -15 50 -15 85l4 65c2 25 31 40 46 40s35 -15 35 -35l-7 -115c-1 -20 -15 -40 -16 -70l-2 -35c-1 -10 -10 -35 -23 -35z" />
    <glyph glyph-name="Idieresis" unicode="&#xcf;" 
d="M440 0h-405c-10 0 -15 5 -15 10s10 12 20 22c10 8 20 18 40 18s35 25 60 25h20c40 0 40 -15 70 -15s30 15 50 15h70c40 0 50 -20 60 -20s20 -5 30 -15s20 -20 20 -30c0 -5 -10 -10 -20 -10zM80 760h390c15 0 25 -5 25 -12c0 -13 -30 -46 -40 -46h-15
c-20 0 -20 -14 -35 -14h-105c-20 0 -20 12 -40 12s-30 -12 -40 -12h-60c-20 0 -30 22 -50 22c-30 0 -45 35 -45 40s5 10 15 10zM225 70c-18 0 -40 25 -40 40l3 60c3 45 17 45 17 80l2 30c2 40 6 70 28 70c17 0 25 -50 25 -70c0 -25 5 -50 5 -80l-3 -90
c-1 -20 -17 -40 -37 -40zM242 400c-12 0 -26 20 -26 30l4 70c0 30 -15 50 -15 85l4 65c2 25 31 40 46 40s35 -15 35 -35l-7 -115c-1 -20 -15 -40 -16 -70l-2 -35c-1 -10 -10 -35 -23 -35z" />
    <glyph glyph-name="Ntilde" unicode="&#xd1;" 
d="M3 45l13 270c2 21 22 40 39 40c20 0 41 -25 41 -50l-4 -80c-2 -30 -20 -40 -22 -60l-4 -85c-2 -25 -35 -50 -45 -50c-7 0 -18 5 -18 15zM24 440l12 250c2 20 9 40 17 40c10 0 40 -35 40 -60l-4 -80c0 -30 20 -40 20 -70l-3 -60c-2 -28 -26 -55 -51 -55
c-20 0 -31 20 -31 35zM174 440l-63 113c-7 11 -12 27 -12 47l3 80c1 10 8 20 15 20c8 0 15 -10 20 -20l55 -115c10 -18 18 -30 18 -50l-4 -75c-1 -10 -7 -20 -12 -20s-10 5 -20 20zM383 80l-103 180c-9 16 -13 23 -13 38l1 20c1 10 8 15 15 15h28c20 0 25 -13 28 -15
l60 -110c15 -28 20 -41 20 -56l-3 -60c-2 -15 -9 -25 -14 -25c-4 0 -15 6 -19 13zM424 90l3 60c0 26 -17 44 -17 70l4 80c2 35 41 55 51 55c16 0 32 -25 32 -45l-13 -250c-1 -12 -8 -20 -16 -20c-24 0 -44 30 -44 50zM424 450l4 85c2 20 22 40 24 65l3 80c2 20 43 45 50 45
s14 -12 14 -25l-16 -280c-1 -11 -16 -20 -32 -20c-10 0 -47 30 -47 50z" />
    <glyph glyph-name="Ograve" unicode="&#xd2;" 
d="M3 45l13 270c2 21 22 40 39 40c20 0 41 -25 41 -50l-4 -80c-2 -30 -20 -40 -22 -60l-4 -85c-2 -25 -35 -50 -45 -50c-7 0 -18 5 -18 15zM440 0h-405c-10 0 -15 5 -15 10s10 12 20 22c10 8 20 18 40 18s35 25 60 25h20c40 0 40 -15 70 -15s30 15 50 15h70
c40 0 50 -20 60 -20s20 -5 30 -15s20 -20 20 -30c0 -5 -10 -10 -20 -10zM424 90l3 60c0 26 -17 44 -17 70l4 80c2 35 41 55 51 55c16 0 32 -25 32 -45l-13 -250c-1 -12 -8 -20 -16 -20c-24 0 -44 30 -44 50zM424 450l4 85c2 20 22 40 24 65l3 80c2 20 43 45 50 45
s14 -12 14 -25l-16 -280c-1 -11 -16 -20 -32 -20c-10 0 -47 30 -47 50zM80 760h390c15 0 25 -5 25 -12c0 -13 -30 -46 -40 -46h-15c-20 0 -20 -14 -35 -14h-105c-20 0 -20 12 -40 12s-30 -12 -40 -12h-60c-20 0 -30 22 -50 22c-30 0 -45 35 -45 40s5 10 15 10zM24 440
l12 250c2 20 9 40 17 40c10 0 40 -35 40 -60l-4 -80c0 -30 20 -40 20 -70l-3 -60c-2 -28 -26 -55 -51 -55c-20 0 -31 20 -31 35z" />
    <glyph glyph-name="Oacute" unicode="&#xd3;" 
d="M3 45l13 270c2 21 22 40 39 40c20 0 41 -25 41 -50l-4 -80c-2 -30 -20 -40 -22 -60l-4 -85c-2 -25 -35 -50 -45 -50c-7 0 -18 5 -18 15zM440 0h-405c-10 0 -15 5 -15 10s10 12 20 22c10 8 20 18 40 18s35 25 60 25h20c40 0 40 -15 70 -15s30 15 50 15h70
c40 0 50 -20 60 -20s20 -5 30 -15s20 -20 20 -30c0 -5 -10 -10 -20 -10zM424 90l3 60c0 26 -17 44 -17 70l4 80c2 35 41 55 51 55c16 0 32 -25 32 -45l-13 -250c-1 -12 -8 -20 -16 -20c-24 0 -44 30 -44 50zM424 450l4 85c2 20 22 40 24 65l3 80c2 20 43 45 50 45
s14 -12 14 -25l-16 -280c-1 -11 -16 -20 -32 -20c-10 0 -47 30 -47 50zM80 760h390c15 0 25 -5 25 -12c0 -13 -30 -46 -40 -46h-15c-20 0 -20 -14 -35 -14h-105c-20 0 -20 12 -40 12s-30 -12 -40 -12h-60c-20 0 -30 22 -50 22c-30 0 -45 35 -45 40s5 10 15 10zM24 440
l12 250c2 20 9 40 17 40c10 0 40 -35 40 -60l-4 -80c0 -30 20 -40 20 -70l-3 -60c-2 -28 -26 -55 -51 -55c-20 0 -31 20 -31 35z" />
    <glyph glyph-name="Ocircumflex" unicode="&#xd4;" 
d="M3 45l13 270c2 21 22 40 39 40c20 0 41 -25 41 -50l-4 -80c-2 -30 -20 -40 -22 -60l-4 -85c-2 -25 -35 -50 -45 -50c-7 0 -18 5 -18 15zM440 0h-405c-10 0 -15 5 -15 10s10 12 20 22c10 8 20 18 40 18s35 25 60 25h20c40 0 40 -15 70 -15s30 15 50 15h70
c40 0 50 -20 60 -20s20 -5 30 -15s20 -20 20 -30c0 -5 -10 -10 -20 -10zM424 90l3 60c0 26 -17 44 -17 70l4 80c2 35 41 55 51 55c16 0 32 -25 32 -45l-13 -250c-1 -12 -8 -20 -16 -20c-24 0 -44 30 -44 50zM424 450l4 85c2 20 22 40 24 65l3 80c2 20 43 45 50 45
s14 -12 14 -25l-16 -280c-1 -11 -16 -20 -32 -20c-10 0 -47 30 -47 50zM80 760h390c15 0 25 -5 25 -12c0 -13 -30 -46 -40 -46h-15c-20 0 -20 -14 -35 -14h-105c-20 0 -20 12 -40 12s-30 -12 -40 -12h-60c-20 0 -30 22 -50 22c-30 0 -45 35 -45 40s5 10 15 10zM24 440
l12 250c2 20 9 40 17 40c10 0 40 -35 40 -60l-4 -80c0 -30 20 -40 20 -70l-3 -60c-2 -28 -26 -55 -51 -55c-20 0 -31 20 -31 35z" />
    <glyph glyph-name="Otilde" unicode="&#xd5;" 
d="M3 45l13 270c2 21 22 40 39 40c20 0 41 -25 41 -50l-4 -80c-2 -30 -20 -40 -22 -60l-4 -85c-2 -25 -35 -50 -45 -50c-7 0 -18 5 -18 15zM440 0h-405c-10 0 -15 5 -15 10s10 12 20 22c10 8 20 18 40 18s35 25 60 25h20c40 0 40 -15 70 -15s30 15 50 15h70
c40 0 50 -20 60 -20s20 -5 30 -15s20 -20 20 -30c0 -5 -10 -10 -20 -10zM424 90l3 60c0 26 -17 44 -17 70l4 80c2 35 41 55 51 55c16 0 32 -25 32 -45l-13 -250c-1 -12 -8 -20 -16 -20c-24 0 -44 30 -44 50zM424 450l4 85c2 20 22 40 24 65l3 80c2 20 43 45 50 45
s14 -12 14 -25l-16 -280c-1 -11 -16 -20 -32 -20c-10 0 -47 30 -47 50zM80 760h390c15 0 25 -5 25 -12c0 -13 -30 -46 -40 -46h-15c-20 0 -20 -14 -35 -14h-105c-20 0 -20 12 -40 12s-30 -12 -40 -12h-60c-20 0 -30 22 -50 22c-30 0 -45 35 -45 40s5 10 15 10zM24 440
l12 250c2 20 9 40 17 40c10 0 40 -35 40 -60l-4 -80c0 -30 20 -40 20 -70l-3 -60c-2 -28 -26 -55 -51 -55c-20 0 -31 20 -31 35z" />
    <glyph glyph-name="Odieresis" unicode="&#xd6;" 
d="M3 45l13 270c2 21 22 40 39 40c20 0 41 -25 41 -50l-4 -80c-2 -30 -20 -40 -22 -60l-4 -85c-2 -25 -35 -50 -45 -50c-7 0 -18 5 -18 15zM440 0h-405c-10 0 -15 5 -15 10s10 12 20 22c10 8 20 18 40 18s35 25 60 25h20c40 0 40 -15 70 -15s30 15 50 15h70
c40 0 50 -20 60 -20s20 -5 30 -15s20 -20 20 -30c0 -5 -10 -10 -20 -10zM424 90l3 60c0 26 -17 44 -17 70l4 80c2 35 41 55 51 55c16 0 32 -25 32 -45l-13 -250c-1 -12 -8 -20 -16 -20c-24 0 -44 30 -44 50zM424 450l4 85c2 20 22 40 24 65l3 80c2 20 43 45 50 45
s14 -12 14 -25l-16 -280c-1 -11 -16 -20 -32 -20c-10 0 -47 30 -47 50zM80 760h390c15 0 25 -5 25 -12c0 -13 -30 -46 -40 -46h-15c-20 0 -20 -14 -35 -14h-105c-20 0 -20 12 -40 12s-30 -12 -40 -12h-60c-20 0 -30 22 -50 22c-30 0 -45 35 -45 40s5 10 15 10zM24 440
l12 250c2 20 9 40 17 40c10 0 40 -35 40 -60l-4 -80c0 -30 20 -40 20 -70l-3 -60c-2 -28 -26 -55 -51 -55c-20 0 -31 20 -31 35z" />
    <glyph glyph-name="Oslash" unicode="&#xd8;" 
d="M3 45l13 270c2 21 22 40 39 40c20 0 41 -25 41 -50l-4 -80c-2 -30 -20 -40 -22 -60l-4 -85c-2 -25 -35 -50 -45 -50c-7 0 -18 5 -18 15zM440 0h-405c-10 0 -15 5 -15 10s10 12 20 22c10 8 20 18 40 18s35 25 60 25h20c40 0 40 -15 70 -15s30 15 50 15h70
c40 0 50 -20 60 -20s20 -5 30 -15s20 -20 20 -30c0 -5 -10 -10 -20 -10zM424 90l3 60c0 26 -17 44 -17 70l4 80c2 35 41 55 51 55c16 0 32 -25 32 -45l-13 -250c-1 -12 -8 -20 -16 -20c-24 0 -44 30 -44 50zM424 450l4 85c2 20 22 40 24 65l3 80c2 20 43 45 50 45
s14 -12 14 -25l-16 -280c-1 -11 -16 -20 -32 -20c-10 0 -47 30 -47 50zM80 760h390c15 0 25 -5 25 -12c0 -13 -30 -46 -40 -46h-15c-20 0 -20 -14 -35 -14h-105c-20 0 -20 12 -40 12s-30 -12 -40 -12h-60c-20 0 -30 22 -50 22c-30 0 -45 35 -45 40s5 10 15 10zM24 440
l12 250c2 20 9 40 17 40c10 0 40 -35 40 -60l-4 -80c0 -30 20 -40 20 -70l-3 -60c-2 -28 -26 -55 -51 -55c-20 0 -31 20 -31 35z" />
    <glyph glyph-name="Ugrave" unicode="&#xd9;" 
d="M24 440l12 250c2 20 9 40 17 40c10 0 40 -35 40 -60l-4 -80c0 -30 20 -40 20 -70l-3 -60c-2 -28 -26 -55 -51 -55c-20 0 -31 20 -31 35zM3 45l13 270c2 21 22 40 39 40c20 0 41 -25 41 -50l-4 -80c-2 -30 -20 -40 -22 -60l-4 -85c-2 -25 -35 -50 -45 -50
c-7 0 -18 5 -18 15zM440 0h-405c-10 0 -15 5 -15 10s10 12 20 22c10 8 20 18 40 18s35 25 60 25h20c40 0 40 -15 70 -15s30 15 50 15h70c40 0 50 -20 60 -20s20 -5 30 -15s20 -20 20 -30c0 -5 -10 -10 -20 -10zM424 90l3 60c0 26 -17 44 -17 70l4 80c2 35 41 55 51 55
c16 0 32 -25 32 -45l-13 -250c-1 -12 -8 -20 -16 -20c-24 0 -44 30 -44 50zM424 450l4 85c2 20 22 40 24 65l3 80c2 20 43 45 50 45s14 -12 14 -25l-16 -280c-1 -11 -16 -20 -32 -20c-10 0 -47 30 -47 50z" />
    <glyph glyph-name="Uacute" unicode="&#xda;" 
d="M24 440l12 250c2 20 9 40 17 40c10 0 40 -35 40 -60l-4 -80c0 -30 20 -40 20 -70l-3 -60c-2 -28 -26 -55 -51 -55c-20 0 -31 20 -31 35zM3 45l13 270c2 21 22 40 39 40c20 0 41 -25 41 -50l-4 -80c-2 -30 -20 -40 -22 -60l-4 -85c-2 -25 -35 -50 -45 -50
c-7 0 -18 5 -18 15zM440 0h-405c-10 0 -15 5 -15 10s10 12 20 22c10 8 20 18 40 18s35 25 60 25h20c40 0 40 -15 70 -15s30 15 50 15h70c40 0 50 -20 60 -20s20 -5 30 -15s20 -20 20 -30c0 -5 -10 -10 -20 -10zM424 90l3 60c0 26 -17 44 -17 70l4 80c2 35 41 55 51 55
c16 0 32 -25 32 -45l-13 -250c-1 -12 -8 -20 -16 -20c-24 0 -44 30 -44 50zM424 450l4 85c2 20 22 40 24 65l3 80c2 20 43 45 50 45s14 -12 14 -25l-16 -280c-1 -11 -16 -20 -32 -20c-10 0 -47 30 -47 50z" />
    <glyph glyph-name="Ucircumflex" unicode="&#xdb;" 
d="M24 440l12 250c2 20 9 40 17 40c10 0 40 -35 40 -60l-4 -80c0 -30 20 -40 20 -70l-3 -60c-2 -28 -26 -55 -51 -55c-20 0 -31 20 -31 35zM3 45l13 270c2 21 22 40 39 40c20 0 41 -25 41 -50l-4 -80c-2 -30 -20 -40 -22 -60l-4 -85c-2 -25 -35 -50 -45 -50
c-7 0 -18 5 -18 15zM440 0h-405c-10 0 -15 5 -15 10s10 12 20 22c10 8 20 18 40 18s35 25 60 25h20c40 0 40 -15 70 -15s30 15 50 15h70c40 0 50 -20 60 -20s20 -5 30 -15s20 -20 20 -30c0 -5 -10 -10 -20 -10zM424 90l3 60c0 26 -17 44 -17 70l4 80c2 35 41 55 51 55
c16 0 32 -25 32 -45l-13 -250c-1 -12 -8 -20 -16 -20c-24 0 -44 30 -44 50zM424 450l4 85c2 20 22 40 24 65l3 80c2 20 43 45 50 45s14 -12 14 -25l-16 -280c-1 -11 -16 -20 -32 -20c-10 0 -47 30 -47 50z" />
    <glyph glyph-name="Udieresis" unicode="&#xdc;" 
d="M24 440l12 250c2 20 9 40 17 40c10 0 40 -35 40 -60l-4 -80c0 -30 20 -40 20 -70l-3 -60c-2 -28 -26 -55 -51 -55c-20 0 -31 20 -31 35zM3 45l13 270c2 21 22 40 39 40c20 0 41 -25 41 -50l-4 -80c-2 -30 -20 -40 -22 -60l-4 -85c-2 -25 -35 -50 -45 -50
c-7 0 -18 5 -18 15zM440 0h-405c-10 0 -15 5 -15 10s10 12 20 22c10 8 20 18 40 18s35 25 60 25h20c40 0 40 -15 70 -15s30 15 50 15h70c40 0 50 -20 60 -20s20 -5 30 -15s20 -20 20 -30c0 -5 -10 -10 -20 -10zM424 90l3 60c0 26 -17 44 -17 70l4 80c2 35 41 55 51 55
c16 0 32 -25 32 -45l-13 -250c-1 -12 -8 -20 -16 -20c-24 0 -44 30 -44 50zM424 450l4 85c2 20 22 40 24 65l3 80c2 20 43 45 50 45s14 -12 14 -25l-16 -280c-1 -11 -16 -20 -32 -20c-10 0 -47 30 -47 50z" />
    <glyph glyph-name="Yacute" unicode="&#xdd;" 
d="M174 440l-63 113c-7 11 -12 27 -12 47l3 80c1 10 8 20 15 20c8 0 15 -10 20 -20l55 -115c10 -18 18 -30 18 -50l-4 -75c-1 -10 -7 -20 -12 -20s-10 5 -20 20zM323 427h-28c-15 0 -22 8 -22 23c2 20 9 35 22 50l108 163c10 15 20 25 28 25c10 0 16 -15 16 -35l-3 -50
c-2 -27 -11 -37 -21 -50l-68 -108c-7 -10 -17 -18 -32 -18zM225 70c-18 0 -40 25 -40 40l3 60c3 45 17 45 17 80l2 30c2 40 6 70 28 70c17 0 25 -50 25 -70c0 -25 5 -50 5 -80l-3 -90c-1 -20 -17 -40 -37 -40z" />
    <glyph glyph-name="agrave" unicode="&#xe0;" 
d="M3 45l13 270c2 21 22 40 39 40c20 0 41 -25 41 -50l-4 -80c-2 -30 -20 -40 -22 -60l-4 -85c-2 -25 -35 -50 -45 -50c-7 0 -18 5 -18 15zM24 440l12 250c2 20 9 40 17 40c10 0 40 -35 40 -60l-4 -80c0 -30 20 -40 20 -70l-3 -60c-2 -28 -26 -55 -51 -55
c-20 0 -31 20 -31 35zM80 760h390c15 0 25 -5 25 -12c0 -13 -30 -46 -40 -46h-15c-20 0 -20 -14 -35 -14h-105c-20 0 -20 12 -40 12s-30 -12 -40 -12h-60c-20 0 -30 22 -50 22c-30 0 -45 35 -45 40s5 10 15 10zM424 450l4 85c2 20 22 40 24 65l3 80c2 20 43 45 50 45
s14 -12 14 -25l-16 -280c-1 -11 -16 -20 -32 -20c-10 0 -47 30 -47 50zM424 90l3 60c0 26 -17 44 -17 70l4 80c2 35 41 55 51 55c16 0 32 -25 32 -45l-13 -250c-1 -12 -8 -20 -16 -20c-24 0 -44 30 -44 50zM165 340h-46c-26 0 -50 19 -50 40s23 40 48 40h50
c25 0 48 -19 48 -40s-24 -40 -50 -40zM405 340h-96c-26 0 -50 19 -50 40s23 40 48 40h100c25 0 48 -19 48 -40s-24 -40 -50 -40z" />
    <glyph glyph-name="aacute" unicode="&#xe1;" 
d="M3 45l13 270c2 21 22 40 39 40c20 0 41 -25 41 -50l-4 -80c-2 -30 -20 -40 -22 -60l-4 -85c-2 -25 -35 -50 -45 -50c-7 0 -18 5 -18 15zM24 440l12 250c2 20 9 40 17 40c10 0 40 -35 40 -60l-4 -80c0 -30 20 -40 20 -70l-3 -60c-2 -28 -26 -55 -51 -55
c-20 0 -31 20 -31 35zM80 760h390c15 0 25 -5 25 -12c0 -13 -30 -46 -40 -46h-15c-20 0 -20 -14 -35 -14h-105c-20 0 -20 12 -40 12s-30 -12 -40 -12h-60c-20 0 -30 22 -50 22c-30 0 -45 35 -45 40s5 10 15 10zM424 450l4 85c2 20 22 40 24 65l3 80c2 20 43 45 50 45
s14 -12 14 -25l-16 -280c-1 -11 -16 -20 -32 -20c-10 0 -47 30 -47 50zM424 90l3 60c0 26 -17 44 -17 70l4 80c2 35 41 55 51 55c16 0 32 -25 32 -45l-13 -250c-1 -12 -8 -20 -16 -20c-24 0 -44 30 -44 50zM165 340h-46c-26 0 -50 19 -50 40s23 40 48 40h50
c25 0 48 -19 48 -40s-24 -40 -50 -40zM405 340h-96c-26 0 -50 19 -50 40s23 40 48 40h100c25 0 48 -19 48 -40s-24 -40 -50 -40z" />
    <glyph glyph-name="acircumflex" unicode="&#xe2;" 
d="M3 45l13 270c2 21 22 40 39 40c20 0 41 -25 41 -50l-4 -80c-2 -30 -20 -40 -22 -60l-4 -85c-2 -25 -35 -50 -45 -50c-7 0 -18 5 -18 15zM24 440l12 250c2 20 9 40 17 40c10 0 40 -35 40 -60l-4 -80c0 -30 20 -40 20 -70l-3 -60c-2 -28 -26 -55 -51 -55
c-20 0 -31 20 -31 35zM80 760h390c15 0 25 -5 25 -12c0 -13 -30 -46 -40 -46h-15c-20 0 -20 -14 -35 -14h-105c-20 0 -20 12 -40 12s-30 -12 -40 -12h-60c-20 0 -30 22 -50 22c-30 0 -45 35 -45 40s5 10 15 10zM424 450l4 85c2 20 22 40 24 65l3 80c2 20 43 45 50 45
s14 -12 14 -25l-16 -280c-1 -11 -16 -20 -32 -20c-10 0 -47 30 -47 50zM424 90l3 60c0 26 -17 44 -17 70l4 80c2 35 41 55 51 55c16 0 32 -25 32 -45l-13 -250c-1 -12 -8 -20 -16 -20c-24 0 -44 30 -44 50zM165 340h-46c-26 0 -50 19 -50 40s23 40 48 40h50
c25 0 48 -19 48 -40s-24 -40 -50 -40zM405 340h-96c-26 0 -50 19 -50 40s23 40 48 40h100c25 0 48 -19 48 -40s-24 -40 -50 -40z" />
    <glyph glyph-name="atilde" unicode="&#xe3;" 
d="M3 45l13 270c2 21 22 40 39 40c20 0 41 -25 41 -50l-4 -80c-2 -30 -20 -40 -22 -60l-4 -85c-2 -25 -35 -50 -45 -50c-7 0 -18 5 -18 15zM24 440l12 250c2 20 9 40 17 40c10 0 40 -35 40 -60l-4 -80c0 -30 20 -40 20 -70l-3 -60c-2 -28 -26 -55 -51 -55
c-20 0 -31 20 -31 35zM80 760h390c15 0 25 -5 25 -12c0 -13 -30 -46 -40 -46h-15c-20 0 -20 -14 -35 -14h-105c-20 0 -20 12 -40 12s-30 -12 -40 -12h-60c-20 0 -30 22 -50 22c-30 0 -45 35 -45 40s5 10 15 10zM424 450l4 85c2 20 22 40 24 65l3 80c2 20 43 45 50 45
s14 -12 14 -25l-16 -280c-1 -11 -16 -20 -32 -20c-10 0 -47 30 -47 50zM424 90l3 60c0 26 -17 44 -17 70l4 80c2 35 41 55 51 55c16 0 32 -25 32 -45l-13 -250c-1 -12 -8 -20 -16 -20c-24 0 -44 30 -44 50zM165 340h-46c-26 0 -50 19 -50 40s23 40 48 40h50
c25 0 48 -19 48 -40s-24 -40 -50 -40zM405 340h-96c-26 0 -50 19 -50 40s23 40 48 40h100c25 0 48 -19 48 -40s-24 -40 -50 -40z" />
    <glyph glyph-name="adieresis" unicode="&#xe4;" 
d="M3 45l13 270c2 21 22 40 39 40c20 0 41 -25 41 -50l-4 -80c-2 -30 -20 -40 -22 -60l-4 -85c-2 -25 -35 -50 -45 -50c-7 0 -18 5 -18 15zM24 440l12 250c2 20 9 40 17 40c10 0 40 -35 40 -60l-4 -80c0 -30 20 -40 20 -70l-3 -60c-2 -28 -26 -55 -51 -55
c-20 0 -31 20 -31 35zM80 760h390c15 0 25 -5 25 -12c0 -13 -30 -46 -40 -46h-15c-20 0 -20 -14 -35 -14h-105c-20 0 -20 12 -40 12s-30 -12 -40 -12h-60c-20 0 -30 22 -50 22c-30 0 -45 35 -45 40s5 10 15 10zM424 450l4 85c2 20 22 40 24 65l3 80c2 20 43 45 50 45
s14 -12 14 -25l-16 -280c-1 -11 -16 -20 -32 -20c-10 0 -47 30 -47 50zM424 90l3 60c0 26 -17 44 -17 70l4 80c2 35 41 55 51 55c16 0 32 -25 32 -45l-13 -250c-1 -12 -8 -20 -16 -20c-24 0 -44 30 -44 50zM165 340h-46c-26 0 -50 19 -50 40s23 40 48 40h50
c25 0 48 -19 48 -40s-24 -40 -50 -40zM405 340h-96c-26 0 -50 19 -50 40s23 40 48 40h100c25 0 48 -19 48 -40s-24 -40 -50 -40z" />
    <glyph glyph-name="aring" unicode="&#xe5;" 
d="M3 45l13 270c2 21 22 40 39 40c20 0 41 -25 41 -50l-4 -80c-2 -30 -20 -40 -22 -60l-4 -85c-2 -25 -35 -50 -45 -50c-7 0 -18 5 -18 15zM24 440l12 250c2 20 9 40 17 40c10 0 40 -35 40 -60l-4 -80c0 -30 20 -40 20 -70l-3 -60c-2 -28 -26 -55 -51 -55
c-20 0 -31 20 -31 35zM80 760h390c15 0 25 -5 25 -12c0 -13 -30 -46 -40 -46h-15c-20 0 -20 -14 -35 -14h-105c-20 0 -20 12 -40 12s-30 -12 -40 -12h-60c-20 0 -30 22 -50 22c-30 0 -45 35 -45 40s5 10 15 10zM424 450l4 85c2 20 22 40 24 65l3 80c2 20 43 45 50 45
s14 -12 14 -25l-16 -280c-1 -11 -16 -20 -32 -20c-10 0 -47 30 -47 50zM424 90l3 60c0 26 -17 44 -17 70l4 80c2 35 41 55 51 55c16 0 32 -25 32 -45l-13 -250c-1 -12 -8 -20 -16 -20c-24 0 -44 30 -44 50zM165 340h-46c-26 0 -50 19 -50 40s23 40 48 40h50
c25 0 48 -19 48 -40s-24 -40 -50 -40zM405 340h-96c-26 0 -50 19 -50 40s23 40 48 40h100c25 0 48 -19 48 -40s-24 -40 -50 -40z" />
    <glyph glyph-name="ccedilla" unicode="&#xe7;" 
d="M80 760h390c15 0 25 -5 25 -12c0 -13 -30 -46 -40 -46h-15c-20 0 -20 -14 -35 -14h-105c-20 0 -20 12 -40 12s-30 -12 -40 -12h-60c-20 0 -30 22 -50 22c-30 0 -45 35 -45 40s5 10 15 10zM24 440l12 250c2 20 9 40 17 40c10 0 40 -35 40 -60l-4 -80c0 -30 20 -40 20 -70
l-3 -60c-2 -28 -26 -55 -51 -55c-20 0 -31 20 -31 35zM3 45l13 270c2 21 22 40 39 40c20 0 41 -25 41 -50l-4 -80c-2 -30 -20 -40 -22 -60l-4 -85c-2 -25 -35 -50 -45 -50c-7 0 -18 5 -18 15zM440 0h-405c-10 0 -15 5 -15 10s10 12 20 22c10 8 20 18 40 18s35 25 60 25h20
c40 0 40 -15 70 -15s30 15 50 15h70c40 0 50 -20 60 -20s20 -5 30 -15s20 -20 20 -30c0 -5 -10 -10 -20 -10z" />
    <glyph glyph-name="egrave" unicode="&#xe8;" 
d="M80 760h390c15 0 25 -5 25 -12c0 -13 -30 -46 -40 -46h-15c-20 0 -20 -14 -35 -14h-105c-20 0 -20 12 -40 12s-30 -12 -40 -12h-60c-20 0 -30 22 -50 22c-30 0 -45 35 -45 40s5 10 15 10zM24 440l12 250c2 20 9 40 17 40c10 0 40 -35 40 -60l-4 -80c0 -30 20 -40 20 -70
l-3 -60c-2 -28 -26 -55 -51 -55c-20 0 -31 20 -31 35zM3 45l13 270c2 21 22 40 39 40c20 0 41 -25 41 -50l-4 -80c-2 -30 -20 -40 -22 -60l-4 -85c-2 -25 -35 -50 -45 -50c-7 0 -18 5 -18 15zM440 0h-405c-10 0 -15 5 -15 10s10 12 20 22c10 8 20 18 40 18s35 25 60 25h20
c40 0 40 -15 70 -15s30 15 50 15h70c40 0 50 -20 60 -20s20 -5 30 -15s20 -20 20 -30c0 -5 -10 -10 -20 -10zM165 340h-46c-26 0 -50 19 -50 40s23 40 48 40h50c25 0 48 -19 48 -40s-24 -40 -50 -40z" />
    <glyph glyph-name="eacute" unicode="&#xe9;" 
d="M80 760h390c15 0 25 -5 25 -12c0 -13 -30 -46 -40 -46h-15c-20 0 -20 -14 -35 -14h-105c-20 0 -20 12 -40 12s-30 -12 -40 -12h-60c-20 0 -30 22 -50 22c-30 0 -45 35 -45 40s5 10 15 10zM24 440l12 250c2 20 9 40 17 40c10 0 40 -35 40 -60l-4 -80c0 -30 20 -40 20 -70
l-3 -60c-2 -28 -26 -55 -51 -55c-20 0 -31 20 -31 35zM3 45l13 270c2 21 22 40 39 40c20 0 41 -25 41 -50l-4 -80c-2 -30 -20 -40 -22 -60l-4 -85c-2 -25 -35 -50 -45 -50c-7 0 -18 5 -18 15zM440 0h-405c-10 0 -15 5 -15 10s10 12 20 22c10 8 20 18 40 18s35 25 60 25h20
c40 0 40 -15 70 -15s30 15 50 15h70c40 0 50 -20 60 -20s20 -5 30 -15s20 -20 20 -30c0 -5 -10 -10 -20 -10zM165 340h-46c-26 0 -50 19 -50 40s23 40 48 40h50c25 0 48 -19 48 -40s-24 -40 -50 -40z" />
    <glyph glyph-name="ecircumflex" unicode="&#xea;" 
d="M80 760h390c15 0 25 -5 25 -12c0 -13 -30 -46 -40 -46h-15c-20 0 -20 -14 -35 -14h-105c-20 0 -20 12 -40 12s-30 -12 -40 -12h-60c-20 0 -30 22 -50 22c-30 0 -45 35 -45 40s5 10 15 10zM24 440l12 250c2 20 9 40 17 40c10 0 40 -35 40 -60l-4 -80c0 -30 20 -40 20 -70
l-3 -60c-2 -28 -26 -55 -51 -55c-20 0 -31 20 -31 35zM3 45l13 270c2 21 22 40 39 40c20 0 41 -25 41 -50l-4 -80c-2 -30 -20 -40 -22 -60l-4 -85c-2 -25 -35 -50 -45 -50c-7 0 -18 5 -18 15zM440 0h-405c-10 0 -15 5 -15 10s10 12 20 22c10 8 20 18 40 18s35 25 60 25h20
c40 0 40 -15 70 -15s30 15 50 15h70c40 0 50 -20 60 -20s20 -5 30 -15s20 -20 20 -30c0 -5 -10 -10 -20 -10zM165 340h-46c-26 0 -50 19 -50 40s23 40 48 40h50c25 0 48 -19 48 -40s-24 -40 -50 -40z" />
    <glyph glyph-name="edieresis" unicode="&#xeb;" 
d="M80 760h390c15 0 25 -5 25 -12c0 -13 -30 -46 -40 -46h-15c-20 0 -20 -14 -35 -14h-105c-20 0 -20 12 -40 12s-30 -12 -40 -12h-60c-20 0 -30 22 -50 22c-30 0 -45 35 -45 40s5 10 15 10zM24 440l12 250c2 20 9 40 17 40c10 0 40 -35 40 -60l-4 -80c0 -30 20 -40 20 -70
l-3 -60c-2 -28 -26 -55 -51 -55c-20 0 -31 20 -31 35zM3 45l13 270c2 21 22 40 39 40c20 0 41 -25 41 -50l-4 -80c-2 -30 -20 -40 -22 -60l-4 -85c-2 -25 -35 -50 -45 -50c-7 0 -18 5 -18 15zM440 0h-405c-10 0 -15 5 -15 10s10 12 20 22c10 8 20 18 40 18s35 25 60 25h20
c40 0 40 -15 70 -15s30 15 50 15h70c40 0 50 -20 60 -20s20 -5 30 -15s20 -20 20 -30c0 -5 -10 -10 -20 -10zM165 340h-46c-26 0 -50 19 -50 40s23 40 48 40h50c25 0 48 -19 48 -40s-24 -40 -50 -40z" />
    <glyph glyph-name="igrave" unicode="&#xec;" 
d="M440 0h-405c-10 0 -15 5 -15 10s10 12 20 22c10 8 20 18 40 18s35 25 60 25h20c40 0 40 -15 70 -15s30 15 50 15h70c40 0 50 -20 60 -20s20 -5 30 -15s20 -20 20 -30c0 -5 -10 -10 -20 -10zM80 760h390c15 0 25 -5 25 -12c0 -13 -30 -46 -40 -46h-15
c-20 0 -20 -14 -35 -14h-105c-20 0 -20 12 -40 12s-30 -12 -40 -12h-60c-20 0 -30 22 -50 22c-30 0 -45 35 -45 40s5 10 15 10zM225 70c-18 0 -40 25 -40 40l3 60c3 45 17 45 17 80l2 30c2 40 6 70 28 70c17 0 25 -50 25 -70c0 -25 5 -50 5 -80l-3 -90
c-1 -20 -17 -40 -37 -40zM242 400c-12 0 -26 20 -26 30l4 70c0 30 -15 50 -15 85l4 65c2 25 31 40 46 40s35 -15 35 -35l-7 -115c-1 -20 -15 -40 -16 -70l-2 -35c-1 -10 -10 -35 -23 -35z" />
    <glyph glyph-name="iacute" unicode="&#xed;" 
d="M440 0h-405c-10 0 -15 5 -15 10s10 12 20 22c10 8 20 18 40 18s35 25 60 25h20c40 0 40 -15 70 -15s30 15 50 15h70c40 0 50 -20 60 -20s20 -5 30 -15s20 -20 20 -30c0 -5 -10 -10 -20 -10zM80 760h390c15 0 25 -5 25 -12c0 -13 -30 -46 -40 -46h-15
c-20 0 -20 -14 -35 -14h-105c-20 0 -20 12 -40 12s-30 -12 -40 -12h-60c-20 0 -30 22 -50 22c-30 0 -45 35 -45 40s5 10 15 10zM225 70c-18 0 -40 25 -40 40l3 60c3 45 17 45 17 80l2 30c2 40 6 70 28 70c17 0 25 -50 25 -70c0 -25 5 -50 5 -80l-3 -90
c-1 -20 -17 -40 -37 -40zM242 400c-12 0 -26 20 -26 30l4 70c0 30 -15 50 -15 85l4 65c2 25 31 40 46 40s35 -15 35 -35l-7 -115c-1 -20 -15 -40 -16 -70l-2 -35c-1 -10 -10 -35 -23 -35z" />
    <glyph glyph-name="icircumflex" unicode="&#xee;" 
d="M440 0h-405c-10 0 -15 5 -15 10s10 12 20 22c10 8 20 18 40 18s35 25 60 25h20c40 0 40 -15 70 -15s30 15 50 15h70c40 0 50 -20 60 -20s20 -5 30 -15s20 -20 20 -30c0 -5 -10 -10 -20 -10zM80 760h390c15 0 25 -5 25 -12c0 -13 -30 -46 -40 -46h-15
c-20 0 -20 -14 -35 -14h-105c-20 0 -20 12 -40 12s-30 -12 -40 -12h-60c-20 0 -30 22 -50 22c-30 0 -45 35 -45 40s5 10 15 10zM225 70c-18 0 -40 25 -40 40l3 60c3 45 17 45 17 80l2 30c2 40 6 70 28 70c17 0 25 -50 25 -70c0 -25 5 -50 5 -80l-3 -90
c-1 -20 -17 -40 -37 -40zM242 400c-12 0 -26 20 -26 30l4 70c0 30 -15 50 -15 85l4 65c2 25 31 40 46 40s35 -15 35 -35l-7 -115c-1 -20 -15 -40 -16 -70l-2 -35c-1 -10 -10 -35 -23 -35z" />
    <glyph glyph-name="idieresis" unicode="&#xef;" 
d="M440 0h-405c-10 0 -15 5 -15 10s10 12 20 22c10 8 20 18 40 18s35 25 60 25h20c40 0 40 -15 70 -15s30 15 50 15h70c40 0 50 -20 60 -20s20 -5 30 -15s20 -20 20 -30c0 -5 -10 -10 -20 -10zM80 760h390c15 0 25 -5 25 -12c0 -13 -30 -46 -40 -46h-15
c-20 0 -20 -14 -35 -14h-105c-20 0 -20 12 -40 12s-30 -12 -40 -12h-60c-20 0 -30 22 -50 22c-30 0 -45 35 -45 40s5 10 15 10zM225 70c-18 0 -40 25 -40 40l3 60c3 45 17 45 17 80l2 30c2 40 6 70 28 70c17 0 25 -50 25 -70c0 -25 5 -50 5 -80l-3 -90
c-1 -20 -17 -40 -37 -40zM242 400c-12 0 -26 20 -26 30l4 70c0 30 -15 50 -15 85l4 65c2 25 31 40 46 40s35 -15 35 -35l-7 -115c-1 -20 -15 -40 -16 -70l-2 -35c-1 -10 -10 -35 -23 -35z" />
    <glyph glyph-name="ntilde" unicode="&#xf1;" 
d="M3 45l13 270c2 21 22 40 39 40c20 0 41 -25 41 -50l-4 -80c-2 -30 -20 -40 -22 -60l-4 -85c-2 -25 -35 -50 -45 -50c-7 0 -18 5 -18 15zM24 440l12 250c2 20 9 40 17 40c10 0 40 -35 40 -60l-4 -80c0 -30 20 -40 20 -70l-3 -60c-2 -28 -26 -55 -51 -55
c-20 0 -31 20 -31 35zM174 440l-63 113c-7 11 -12 27 -12 47l3 80c1 10 8 20 15 20c8 0 15 -10 20 -20l55 -115c10 -18 18 -30 18 -50l-4 -75c-1 -10 -7 -20 -12 -20s-10 5 -20 20zM383 80l-103 180c-9 16 -13 23 -13 38l1 20c1 10 8 15 15 15h28c20 0 25 -13 28 -15
l60 -110c15 -28 20 -41 20 -56l-3 -60c-2 -15 -9 -25 -14 -25c-4 0 -15 6 -19 13zM424 90l3 60c0 26 -17 44 -17 70l4 80c2 35 41 55 51 55c16 0 32 -25 32 -45l-13 -250c-1 -12 -8 -20 -16 -20c-24 0 -44 30 -44 50zM424 450l4 85c2 20 22 40 24 65l3 80c2 20 43 45 50 45
s14 -12 14 -25l-16 -280c-1 -11 -16 -20 -32 -20c-10 0 -47 30 -47 50z" />
    <glyph glyph-name="ograve" unicode="&#xf2;" 
d="M3 45l13 270c2 21 22 40 39 40c20 0 41 -25 41 -50l-4 -80c-2 -30 -20 -40 -22 -60l-4 -85c-2 -25 -35 -50 -45 -50c-7 0 -18 5 -18 15zM440 0h-405c-10 0 -15 5 -15 10s10 12 20 22c10 8 20 18 40 18s35 25 60 25h20c40 0 40 -15 70 -15s30 15 50 15h70
c40 0 50 -20 60 -20s20 -5 30 -15s20 -20 20 -30c0 -5 -10 -10 -20 -10zM424 90l3 60c0 26 -17 44 -17 70l4 80c2 35 41 55 51 55c16 0 32 -25 32 -45l-13 -250c-1 -12 -8 -20 -16 -20c-24 0 -44 30 -44 50zM424 450l4 85c2 20 22 40 24 65l3 80c2 20 43 45 50 45
s14 -12 14 -25l-16 -280c-1 -11 -16 -20 -32 -20c-10 0 -47 30 -47 50zM80 760h390c15 0 25 -5 25 -12c0 -13 -30 -46 -40 -46h-15c-20 0 -20 -14 -35 -14h-105c-20 0 -20 12 -40 12s-30 -12 -40 -12h-60c-20 0 -30 22 -50 22c-30 0 -45 35 -45 40s5 10 15 10zM24 440
l12 250c2 20 9 40 17 40c10 0 40 -35 40 -60l-4 -80c0 -30 20 -40 20 -70l-3 -60c-2 -28 -26 -55 -51 -55c-20 0 -31 20 -31 35z" />
    <glyph glyph-name="oacute" unicode="&#xf3;" 
d="M3 45l13 270c2 21 22 40 39 40c20 0 41 -25 41 -50l-4 -80c-2 -30 -20 -40 -22 -60l-4 -85c-2 -25 -35 -50 -45 -50c-7 0 -18 5 -18 15zM440 0h-405c-10 0 -15 5 -15 10s10 12 20 22c10 8 20 18 40 18s35 25 60 25h20c40 0 40 -15 70 -15s30 15 50 15h70
c40 0 50 -20 60 -20s20 -5 30 -15s20 -20 20 -30c0 -5 -10 -10 -20 -10zM424 90l3 60c0 26 -17 44 -17 70l4 80c2 35 41 55 51 55c16 0 32 -25 32 -45l-13 -250c-1 -12 -8 -20 -16 -20c-24 0 -44 30 -44 50zM424 450l4 85c2 20 22 40 24 65l3 80c2 20 43 45 50 45
s14 -12 14 -25l-16 -280c-1 -11 -16 -20 -32 -20c-10 0 -47 30 -47 50zM80 760h390c15 0 25 -5 25 -12c0 -13 -30 -46 -40 -46h-15c-20 0 -20 -14 -35 -14h-105c-20 0 -20 12 -40 12s-30 -12 -40 -12h-60c-20 0 -30 22 -50 22c-30 0 -45 35 -45 40s5 10 15 10zM24 440
l12 250c2 20 9 40 17 40c10 0 40 -35 40 -60l-4 -80c0 -30 20 -40 20 -70l-3 -60c-2 -28 -26 -55 -51 -55c-20 0 -31 20 -31 35z" />
    <glyph glyph-name="ocircumflex" unicode="&#xf4;" 
d="M3 45l13 270c2 21 22 40 39 40c20 0 41 -25 41 -50l-4 -80c-2 -30 -20 -40 -22 -60l-4 -85c-2 -25 -35 -50 -45 -50c-7 0 -18 5 -18 15zM440 0h-405c-10 0 -15 5 -15 10s10 12 20 22c10 8 20 18 40 18s35 25 60 25h20c40 0 40 -15 70 -15s30 15 50 15h70
c40 0 50 -20 60 -20s20 -5 30 -15s20 -20 20 -30c0 -5 -10 -10 -20 -10zM424 90l3 60c0 26 -17 44 -17 70l4 80c2 35 41 55 51 55c16 0 32 -25 32 -45l-13 -250c-1 -12 -8 -20 -16 -20c-24 0 -44 30 -44 50zM424 450l4 85c2 20 22 40 24 65l3 80c2 20 43 45 50 45
s14 -12 14 -25l-16 -280c-1 -11 -16 -20 -32 -20c-10 0 -47 30 -47 50zM80 760h390c15 0 25 -5 25 -12c0 -13 -30 -46 -40 -46h-15c-20 0 -20 -14 -35 -14h-105c-20 0 -20 12 -40 12s-30 -12 -40 -12h-60c-20 0 -30 22 -50 22c-30 0 -45 35 -45 40s5 10 15 10zM24 440
l12 250c2 20 9 40 17 40c10 0 40 -35 40 -60l-4 -80c0 -30 20 -40 20 -70l-3 -60c-2 -28 -26 -55 -51 -55c-20 0 -31 20 -31 35z" />
    <glyph glyph-name="otilde" unicode="&#xf5;" 
d="M3 45l13 270c2 21 22 40 39 40c20 0 41 -25 41 -50l-4 -80c-2 -30 -20 -40 -22 -60l-4 -85c-2 -25 -35 -50 -45 -50c-7 0 -18 5 -18 15zM440 0h-405c-10 0 -15 5 -15 10s10 12 20 22c10 8 20 18 40 18s35 25 60 25h20c40 0 40 -15 70 -15s30 15 50 15h70
c40 0 50 -20 60 -20s20 -5 30 -15s20 -20 20 -30c0 -5 -10 -10 -20 -10zM424 90l3 60c0 26 -17 44 -17 70l4 80c2 35 41 55 51 55c16 0 32 -25 32 -45l-13 -250c-1 -12 -8 -20 -16 -20c-24 0 -44 30 -44 50zM424 450l4 85c2 20 22 40 24 65l3 80c2 20 43 45 50 45
s14 -12 14 -25l-16 -280c-1 -11 -16 -20 -32 -20c-10 0 -47 30 -47 50zM80 760h390c15 0 25 -5 25 -12c0 -13 -30 -46 -40 -46h-15c-20 0 -20 -14 -35 -14h-105c-20 0 -20 12 -40 12s-30 -12 -40 -12h-60c-20 0 -30 22 -50 22c-30 0 -45 35 -45 40s5 10 15 10zM24 440
l12 250c2 20 9 40 17 40c10 0 40 -35 40 -60l-4 -80c0 -30 20 -40 20 -70l-3 -60c-2 -28 -26 -55 -51 -55c-20 0 -31 20 -31 35z" />
    <glyph glyph-name="odieresis" unicode="&#xf6;" 
d="M3 45l13 270c2 21 22 40 39 40c20 0 41 -25 41 -50l-4 -80c-2 -30 -20 -40 -22 -60l-4 -85c-2 -25 -35 -50 -45 -50c-7 0 -18 5 -18 15zM440 0h-405c-10 0 -15 5 -15 10s10 12 20 22c10 8 20 18 40 18s35 25 60 25h20c40 0 40 -15 70 -15s30 15 50 15h70
c40 0 50 -20 60 -20s20 -5 30 -15s20 -20 20 -30c0 -5 -10 -10 -20 -10zM424 90l3 60c0 26 -17 44 -17 70l4 80c2 35 41 55 51 55c16 0 32 -25 32 -45l-13 -250c-1 -12 -8 -20 -16 -20c-24 0 -44 30 -44 50zM424 450l4 85c2 20 22 40 24 65l3 80c2 20 43 45 50 45
s14 -12 14 -25l-16 -280c-1 -11 -16 -20 -32 -20c-10 0 -47 30 -47 50zM80 760h390c15 0 25 -5 25 -12c0 -13 -30 -46 -40 -46h-15c-20 0 -20 -14 -35 -14h-105c-20 0 -20 12 -40 12s-30 -12 -40 -12h-60c-20 0 -30 22 -50 22c-30 0 -45 35 -45 40s5 10 15 10zM24 440
l12 250c2 20 9 40 17 40c10 0 40 -35 40 -60l-4 -80c0 -30 20 -40 20 -70l-3 -60c-2 -28 -26 -55 -51 -55c-20 0 -31 20 -31 35z" />
    <glyph glyph-name="oslash" unicode="&#xf8;" 
d="M3 45l13 270c2 21 22 40 39 40c20 0 41 -25 41 -50l-4 -80c-2 -30 -20 -40 -22 -60l-4 -85c-2 -25 -35 -50 -45 -50c-7 0 -18 5 -18 15zM440 0h-405c-10 0 -15 5 -15 10s10 12 20 22c10 8 20 18 40 18s35 25 60 25h20c40 0 40 -15 70 -15s30 15 50 15h70
c40 0 50 -20 60 -20s20 -5 30 -15s20 -20 20 -30c0 -5 -10 -10 -20 -10zM424 90l3 60c0 26 -17 44 -17 70l4 80c2 35 41 55 51 55c16 0 32 -25 32 -45l-13 -250c-1 -12 -8 -20 -16 -20c-24 0 -44 30 -44 50zM424 450l4 85c2 20 22 40 24 65l3 80c2 20 43 45 50 45
s14 -12 14 -25l-16 -280c-1 -11 -16 -20 -32 -20c-10 0 -47 30 -47 50zM80 760h390c15 0 25 -5 25 -12c0 -13 -30 -46 -40 -46h-15c-20 0 -20 -14 -35 -14h-105c-20 0 -20 12 -40 12s-30 -12 -40 -12h-60c-20 0 -30 22 -50 22c-30 0 -45 35 -45 40s5 10 15 10zM24 440
l12 250c2 20 9 40 17 40c10 0 40 -35 40 -60l-4 -80c0 -30 20 -40 20 -70l-3 -60c-2 -28 -26 -55 -51 -55c-20 0 -31 20 -31 35z" />
    <glyph glyph-name="ugrave" unicode="&#xf9;" 
d="M24 440l12 250c2 20 9 40 17 40c10 0 40 -35 40 -60l-4 -80c0 -30 20 -40 20 -70l-3 -60c-2 -28 -26 -55 -51 -55c-20 0 -31 20 -31 35zM3 45l13 270c2 21 22 40 39 40c20 0 41 -25 41 -50l-4 -80c-2 -30 -20 -40 -22 -60l-4 -85c-2 -25 -35 -50 -45 -50
c-7 0 -18 5 -18 15zM440 0h-405c-10 0 -15 5 -15 10s10 12 20 22c10 8 20 18 40 18s35 25 60 25h20c40 0 40 -15 70 -15s30 15 50 15h70c40 0 50 -20 60 -20s20 -5 30 -15s20 -20 20 -30c0 -5 -10 -10 -20 -10zM424 90l3 60c0 26 -17 44 -17 70l4 80c2 35 41 55 51 55
c16 0 32 -25 32 -45l-13 -250c-1 -12 -8 -20 -16 -20c-24 0 -44 30 -44 50zM424 450l4 85c2 20 22 40 24 65l3 80c2 20 43 45 50 45s14 -12 14 -25l-16 -280c-1 -11 -16 -20 -32 -20c-10 0 -47 30 -47 50z" />
    <glyph glyph-name="uacute" unicode="&#xfa;" 
d="M24 440l12 250c2 20 9 40 17 40c10 0 40 -35 40 -60l-4 -80c0 -30 20 -40 20 -70l-3 -60c-2 -28 -26 -55 -51 -55c-20 0 -31 20 -31 35zM3 45l13 270c2 21 22 40 39 40c20 0 41 -25 41 -50l-4 -80c-2 -30 -20 -40 -22 -60l-4 -85c-2 -25 -35 -50 -45 -50
c-7 0 -18 5 -18 15zM440 0h-405c-10 0 -15 5 -15 10s10 12 20 22c10 8 20 18 40 18s35 25 60 25h20c40 0 40 -15 70 -15s30 15 50 15h70c40 0 50 -20 60 -20s20 -5 30 -15s20 -20 20 -30c0 -5 -10 -10 -20 -10zM424 90l3 60c0 26 -17 44 -17 70l4 80c2 35 41 55 51 55
c16 0 32 -25 32 -45l-13 -250c-1 -12 -8 -20 -16 -20c-24 0 -44 30 -44 50zM424 450l4 85c2 20 22 40 24 65l3 80c2 20 43 45 50 45s14 -12 14 -25l-16 -280c-1 -11 -16 -20 -32 -20c-10 0 -47 30 -47 50z" />
    <glyph glyph-name="ucircumflex" unicode="&#xfb;" 
d="M24 440l12 250c2 20 9 40 17 40c10 0 40 -35 40 -60l-4 -80c0 -30 20 -40 20 -70l-3 -60c-2 -28 -26 -55 -51 -55c-20 0 -31 20 -31 35zM3 45l13 270c2 21 22 40 39 40c20 0 41 -25 41 -50l-4 -80c-2 -30 -20 -40 -22 -60l-4 -85c-2 -25 -35 -50 -45 -50
c-7 0 -18 5 -18 15zM440 0h-405c-10 0 -15 5 -15 10s10 12 20 22c10 8 20 18 40 18s35 25 60 25h20c40 0 40 -15 70 -15s30 15 50 15h70c40 0 50 -20 60 -20s20 -5 30 -15s20 -20 20 -30c0 -5 -10 -10 -20 -10zM424 90l3 60c0 26 -17 44 -17 70l4 80c2 35 41 55 51 55
c16 0 32 -25 32 -45l-13 -250c-1 -12 -8 -20 -16 -20c-24 0 -44 30 -44 50zM424 450l4 85c2 20 22 40 24 65l3 80c2 20 43 45 50 45s14 -12 14 -25l-16 -280c-1 -11 -16 -20 -32 -20c-10 0 -47 30 -47 50z" />
    <glyph glyph-name="udieresis" unicode="&#xfc;" 
d="M24 440l12 250c2 20 9 40 17 40c10 0 40 -35 40 -60l-4 -80c0 -30 20 -40 20 -70l-3 -60c-2 -28 -26 -55 -51 -55c-20 0 -31 20 -31 35zM3 45l13 270c2 21 22 40 39 40c20 0 41 -25 41 -50l-4 -80c-2 -30 -20 -40 -22 -60l-4 -85c-2 -25 -35 -50 -45 -50
c-7 0 -18 5 -18 15zM440 0h-405c-10 0 -15 5 -15 10s10 12 20 22c10 8 20 18 40 18s35 25 60 25h20c40 0 40 -15 70 -15s30 15 50 15h70c40 0 50 -20 60 -20s20 -5 30 -15s20 -20 20 -30c0 -5 -10 -10 -20 -10zM424 90l3 60c0 26 -17 44 -17 70l4 80c2 35 41 55 51 55
c16 0 32 -25 32 -45l-13 -250c-1 -12 -8 -20 -16 -20c-24 0 -44 30 -44 50zM424 450l4 85c2 20 22 40 24 65l3 80c2 20 43 45 50 45s14 -12 14 -25l-16 -280c-1 -11 -16 -20 -32 -20c-10 0 -47 30 -47 50z" />
    <glyph glyph-name="yacute" unicode="&#xfd;" 
d="M174 440l-63 113c-7 11 -12 27 -12 47l3 80c1 10 8 20 15 20c8 0 15 -10 20 -20l55 -115c10 -18 18 -30 18 -50l-4 -75c-1 -10 -7 -20 -12 -20s-10 5 -20 20zM323 427h-28c-15 0 -22 8 -22 23c2 20 9 35 22 50l108 163c10 15 20 25 28 25c10 0 16 -15 16 -35l-3 -50
c-2 -27 -11 -37 -21 -50l-68 -108c-7 -10 -17 -18 -32 -18zM225 70c-18 0 -40 25 -40 40l3 60c3 45 17 45 17 80l2 30c2 40 6 70 28 70c17 0 25 -50 25 -70c0 -25 5 -50 5 -80l-3 -90c-1 -20 -17 -40 -37 -40z" />
    <glyph glyph-name="ydieresis" unicode="&#xff;" 
d="M174 440l-63 113c-7 11 -12 27 -12 47l3 80c1 10 8 20 15 20c8 0 15 -10 20 -20l55 -115c10 -18 18 -30 18 -50l-4 -75c-1 -10 -7 -20 -12 -20s-10 5 -20 20zM323 427h-28c-15 0 -22 8 -22 23c2 20 9 35 22 50l108 163c10 15 20 25 28 25c10 0 16 -15 16 -35l-3 -50
c-2 -27 -11 -37 -21 -50l-68 -108c-7 -10 -17 -18 -32 -18zM225 70c-18 0 -40 25 -40 40l3 60c3 45 17 45 17 80l2 30c2 40 6 70 28 70c17 0 25 -50 25 -70c0 -25 5 -50 5 -80l-3 -90c-1 -20 -17 -40 -37 -40z" />
    <glyph glyph-name="quoteleft" unicode="&#x2018;" 
d="M174 440l-63 113c-7 11 -12 27 -12 47l3 80c1 10 8 20 15 20c8 0 15 -10 20 -20l55 -115c10 -18 18 -30 18 -50l-4 -75c-1 -10 -7 -20 -12 -20s-10 5 -20 20z" />
  </font>
</defs>
</svg>
